<?xml version="1.0" standalone="no"?>
<!DOCTYPE svg PUBLIC "-//W3C//DTD SVG 1.1//EN" "http://www.w3.org/Graphics/SVG/1.1/DTD/svg11.dtd" >
<svg xmlns="http://www.w3.org/2000/svg">
<metadata></metadata>
<defs>
<font id="pf_beausans_prolight" horiz-adv-x="1193" >
<font-face units-per-em="2048" ascent="1536" descent="-512" />
<missing-glyph horiz-adv-x="540" />
<glyph horiz-adv-x="0" />
<glyph horiz-adv-x="682" />
<glyph unicode=" "  horiz-adv-x="540" />
<glyph unicode="&#x09;" horiz-adv-x="540" />
<glyph unicode="&#xa0;" horiz-adv-x="540" />
<glyph unicode="!" horiz-adv-x="538" d="M154 96q0 48 33.5 81.5t82.5 33.5q50 0 82.5 -32.5t32.5 -82.5t-33 -83t-82 -33q-51 0 -83.5 33t-32.5 83zM182 1405q0 29 29 29h117q30 0 26 -29l-32 -1006q0 -17 -7 -22.5t-30 -5.5h-35q-33 0 -33 24z" />
<glyph unicode="&#x22;" horiz-adv-x="688" d="M113 1411q0 29 28 29h131q29 0 29 -29l-41 -463q-5 -18 -11 -23t-26 -5h-37q-30 0 -30 24zM387 1411q0 29 29 29h129q32 0 28 -29l-41 -463q-2 -18 -7.5 -23t-28.5 -5h-37q-28 0 -31 24z" />
<glyph unicode="#" d="M100 336l11 49q1 2 2 5.5t1.5 4.5l2 4l2 4t2 3t3 2.5t3.5 1.5t4.5 1.5t5.5 0.5h174l78 395h-182q-24 0 -21 24l11 50q6 24 28 24h185l53 269q3 20 24 20h62q27 0 24 -20l-55 -269h322l55 269q3 20 23 20h61q28 0 25 -20l-56 -269h185q25 0 22 -24l-12 -50 q-5 -15 -9.5 -19.5t-17.5 -4.5h-186l-80 -395h192q27 0 21 -27l-8 -49q-1 -2 -2 -4.5t-1.5 -4t-1.5 -3.5l-1.5 -3t-1.5 -2.5t-2.5 -2t-3.5 -1.5t-4 -1t-5 -0.5t-6 -0.5h-195q-7 -28 -29.5 -143t-27.5 -147q-6 -19 -12 -22q-4 -1 -12 -1h-62q-25 0 -22 23l55 290h-320 q-7 -28 -29.5 -143t-27.5 -147q-5 -15 -8.5 -19t-16.5 -4h-61q-28 0 -25 23l58 290h-172q-26 0 -19 23zM420 412h321l80 395h-321z" />
<glyph unicode="$" d="M98 115l39 86q8 20 31 10q120 -55 293 -80v563q-161 66 -235 144t-74 202q0 133 80 226t229 123v174q0 17 6.5 21.5t24.5 4.5h30q18 0 23.5 -4.5t5.5 -21.5v-1762q0 -16 -5.5 -20t-23.5 -4h-30q-19 0 -25 4t-6 20v185q-209 23 -355 94q-24 10 -8 35zM307 1051 q0 -66 38.5 -110.5t115.5 -82.5v379q-154 -52 -154 -186zM635 -199v1762q0 16 6 21t21 5h32q18 0 23.5 -4.5t5.5 -21.5v-168q129 -12 266 -68q21 -9 12 -31l-34 -92q-9 -19 -27 -10q-116 43 -217 55v-497q85 -34 144.5 -67t112 -79t79 -107t26.5 -137q0 -156 -96.5 -251.5 t-265.5 -120.5v-189q0 -16 -5.5 -20t-23.5 -4h-32q-15 0 -21 4t-6 20zM723 133q93 22 150 77t57 144q0 78 -50.5 133t-156.5 105v-459z" />
<glyph unicode="%" horiz-adv-x="1802" d="M88 961q0 200 90.5 314t265.5 114q180 0 266.5 -111t86.5 -315q0 -202 -89 -314t-268 -112q-175 0 -263.5 111t-88.5 313zM217 963q0 -324 227 -324q64 0 110 29t69.5 78t34 102t10.5 113q0 49 -6 92.5t-22.5 86.5t-41.5 73.5t-65.5 49.5t-92.5 19q-62 0 -107.5 -27.5 t-69.5 -75.5t-35 -101.5t-11 -114.5zM432 -23l838 1430q2 2 5 6t4 5.5t3.5 4.5t3.5 3.5t3.5 2t4.5 2t5 1t6 0.5h61q28 0 14 -25l-841 -1430q-15 -24 -37 -24h-53q-30 0 -17 24zM1004 412q0 200 90.5 313t265.5 113q352 0 352 -424q0 -202 -89 -314t-267 -112 q-175 0 -263.5 111t-88.5 313zM1133 414q0 -324 227 -324q64 0 109.5 29t69 78t34 102t10.5 113q0 63 -10.5 116t-35 101.5t-70.5 76t-111 27.5q-62 0 -107.5 -27.5t-69.5 -75.5t-35 -101.5t-11 -114.5z" />
<glyph unicode="&#x26;" horiz-adv-x="1464" d="M137 317q0 142 91.5 268.5t242.5 217.5q-164 192 -164 340q0 139 96.5 227t235.5 88q138 0 230 -81t92 -210q0 -67 -22 -126t-64.5 -107.5t-90 -86.5t-112.5 -79q44 -58 83 -108t86.5 -108t76.5 -95q41 69 67.5 107.5t70 92t92.5 88t107 54.5q54 17 93 20q21 3 24 -16 l14 -80q8 -23 -20 -27q-35 -5 -66 -14.5t-57 -25.5t-46.5 -30t-41.5 -38.5t-34.5 -41t-31.5 -48t-27 -48t-27.5 -52t-26.5 -50.5q22 -40 149 -178q55 -64 123 -141q7 -7 4 -18t-14 -11h-109q-35 0 -53 23l-176 202q-91 -124 -195 -188t-237 -64q-172 0 -267.5 91.5 t-95.5 252.5zM283 330q0 -116 63.5 -171t167.5 -55q88 0 176 60.5t154 171.5q-30 37 -91 112.5t-107.5 134.5t-90.5 117q-59 -38 -103 -75t-85 -83t-62.5 -100t-21.5 -112zM455 1153q0 -117 141 -287q221 136 221 287q0 71 -45 125.5t-131 54.5q-85 0 -135.5 -50t-50.5 -130 z" />
<glyph unicode="'" horiz-adv-x="428" d="M121 1411q-4 29 26 29h132q32 0 28 -29l-41 -463q-2 -18 -8 -23t-29 -5h-36q-30 0 -33 24z" />
<glyph unicode="(" horiz-adv-x="579" d="M61 664q0 453 381 823q13 13 29 4l51 -37q9 -8 8.5 -11t-6.5 -11q-151 -167 -221 -354t-70 -406q0 -226 71 -413t220 -351q11 -14 0 -23l-53 -41q-16 -9 -27 2q-174 161 -278.5 370.5t-104.5 447.5z" />
<glyph unicode=")" horiz-adv-x="585" d="M59.5 -105.5q0.5 3.5 6.5 11.5q290 319 290 758q0 227 -71 413.5t-219 352.5q-10 14 0 20l55 41q15 9 26 -2q381 -370 381 -817q0 -244 -102 -452t-276 -372q-13 -13 -29 -4l-53 39q-9 8 -8.5 11.5z" />
<glyph unicode="*" horiz-adv-x="958" d="M133 1122l23 74q9 31 37 16l249 -102l-20 276q-2 9 3 16t21 7h80q29 0 25 -25l-23 -274l252 107q26 11 35 -13l25 -78q7 -29 -17 -32l-266 -72l180 -209q18 -21 -4 -37l-59 -45q-17 -14 -26.5 -12.5t-16.5 18.5l-144 234l-145 -242q-12 -24 -35 -8l-65 51q-22 16 -6 39 l176 211l-260 68q-28 6 -19 32z" />
<glyph unicode="+" d="M106 659v91q0 15 5.5 21.5t21.5 6.5h389v404q0 17 5.5 21.5t23.5 4.5h94q17 0 22 -4.5t5 -21.5v-404h387q16 0 21 -6.5t5 -21.5v-91q0 -18 -4.5 -23t-21.5 -5h-387v-406q0 -17 -5 -21.5t-22 -4.5h-94q-18 0 -23.5 4.5t-5.5 21.5v406h-389q-17 0 -22 5.5t-5 22.5z" />
<glyph unicode="," horiz-adv-x="456" d="M121 -223l31 418q4 34 36 34h142q18 0 26.5 -9.5t3.5 -22.5l-120 -418q-5 -18 -12 -24.5t-25 -6.5h-49q-18 0 -26.5 7.5t-6.5 21.5z" />
<glyph unicode="-" horiz-adv-x="727" d="M102 522v119q0 15 5.5 21t21.5 6h471q16 0 20.5 -6t4.5 -21v-119q0 -17 -4 -21.5t-21 -4.5h-471q-17 0 -22 4.5t-5 21.5z" />
<glyph unicode="." horiz-adv-x="487" d="M119 100q0 54 35.5 88.5t89.5 34.5t89.5 -34.5t35.5 -88.5t-35.5 -89.5t-89.5 -35.5t-89.5 35.5t-35.5 89.5z" />
<glyph unicode="/" horiz-adv-x="862" d="M27 -172l665 1741q6 26 33 26h98q12 0 18.5 -6.5t2.5 -19.5l-668 -1741q-6 -25 -35 -25h-92q-30 0 -22 25z" />
<glyph unicode="0" d="M63 686q0 334 137 523.5t398 189.5q528 0 528 -709q0 -337 -132.5 -525t-399.5 -188q-261 0 -396 187.5t-135 521.5zM217 690q0 -74 7.5 -141t23.5 -135t45.5 -122.5t70 -97.5t100.5 -66.5t134 -23.5q85 0 152 35t108.5 91.5t68.5 134.5t37.5 156.5t10.5 164.5 q0 74 -7.5 140.5t-23.5 134.5t-45.5 122t-70 97t-100.5 66.5t-134 23.5q-85 0 -152 -34t-108.5 -89.5t-68.5 -132.5t-37.5 -156t-10.5 -168z" />
<glyph unicode="1" d="M258 29v80q0 17 5 22.5t22 5.5h245v1086l-239 -39q-18 -4 -24.5 1t-6.5 23v60q0 18 6.5 26.5t24.5 14.5l280 82q43 14 76 0t33 -56v-1198h252q17 0 21.5 -5t4.5 -23v-80q0 -18 -4.5 -23.5t-21.5 -5.5h-647q-17 0 -22 5.5t-5 23.5z" />
<glyph unicode="2" d="M121 125q0 161 182 352q105 112 313 248q148 95 205.5 158.5t57.5 152.5q0 105 -86 163t-222 58q-180 0 -321 -106q-24 -18 -39 2l-53 70q-13 22 8 37q88 66 196 102.5t218 36.5q198 0 326 -92t128 -260q0 -95 -41.5 -173.5t-111.5 -138.5t-185 -129q-64 -38 -126 -85 t-124 -107.5t-106.5 -132.5t-58.5 -144h727q17 0 21.5 -5t4.5 -23v-80q0 -18 -4.5 -23.5t-21.5 -5.5h-760q-72 0 -99.5 28.5t-27.5 96.5z" />
<glyph unicode="3" d="M96 135l51 74q16 22 43 4q150 -98 336 -98q170 0 261.5 79t91.5 216q0 109 -93.5 180.5t-226.5 71.5h-51q-55 0 -55 45v49q0 24 14 36.5t35 12.5h37q137 0 219 62t82 175q0 61 -26 105.5t-70.5 68.5t-94 35t-104.5 11q-186 0 -328 -97q-27 -18 -43 4l-47 68q-12 16 6 31 q77 64 192 98.5t232 34.5q123 0 220.5 -38t156.5 -116.5t59 -187.5q0 -108 -64.5 -196.5t-174.5 -123.5v-8q132 -24 207 -115t75 -217q0 -186 -133.5 -304t-361.5 -118q-287 0 -439 125q-18 15 -6 33z" />
<glyph unicode="4" d="M47 393v23q0 30 7.5 51t29.5 49l621 811q20 27 31.5 40t32 25.5t42.5 12.5h49q47 0 66.5 -20t19.5 -68v-871h156q28 0 28 -26v-76q0 -27 -28 -27h-156v-290q0 -16 -6.5 -21.5t-21.5 -5.5h-97q-17 0 -22.5 5t-5.5 22v288h-662q-84 0 -84 78zM217 455l2 -9h574v756l-7 2z " />
<glyph unicode="5" d="M102 133l52 74q16 22 43 4q150 -98 364 -98q169 0 270 85t101 236q0 73 -27.5 129t-74 88t-102 48t-118.5 16q-105 0 -180 -20t-172 -64q-31 -16 -74 0l-26 12q-49 18 -41 74l55 555q4 55 35.5 80.5t73.5 25.5h677q18 0 23.5 -5t5.5 -23v-80q0 -29 -29 -29h-641l-49 -459 q161 70 359 70q196 0 327 -113.5t131 -298.5q0 -217 -140.5 -342t-379.5 -125q-296 0 -456 127q-19 12 -7 33z" />
<glyph unicode="6" d="M78 618q0 140 23 258t73.5 217t126.5 167.5t186 106.5t248 38q125 0 215 -33q26 -9 17 -35l-25 -77q-10 -26 -37 -17q-79 27 -172 27q-215 0 -340.5 -129t-148.5 -369q196 70 399 70q136 0 242.5 -44.5t172.5 -140.5t66 -233q0 -111 -41 -198t-111.5 -140.5t-159.5 -81 t-189 -27.5q-263 0 -404 166t-141 475zM231 567q0 -204 107.5 -331t286.5 -127q156 0 251 79.5t95 225.5q0 130 -85 210.5t-245 80.5q-182 0 -408 -68q-2 -33 -2 -70z" />
<glyph unicode="7" d="M90 1272v78q0 17 5 22.5t22 5.5h854q78 0 78 -63v-35q0 -46 -31 -104l-592 -1133q-11 -24 -23 -33.5t-36 -9.5h-101q-34 0 -18 37l631 1206h-762q-17 0 -22 5.5t-5 23.5z" />
<glyph unicode="8" d="M94 373q0 121 74.5 221.5t202.5 140.5v4q-62 21 -108 58t-70 79t-35 80.5t-11 73.5q0 169 125.5 270t319.5 101q198 0 319 -101.5t121 -259.5q0 -35 -12 -75.5t-36.5 -84.5t-69.5 -82t-103 -59v-2q140 -42 207 -138t67 -222q0 -69 -28.5 -136.5t-85 -128t-155 -98 t-224.5 -37.5q-127 0 -224.5 31.5t-156 87t-88 125.5t-29.5 152zM248 381q0 -56 19.5 -104t59.5 -87.5t107.5 -62.5t155.5 -23q91 0 160 25.5t107 68t56.5 90.5t18.5 101q0 90 -50.5 154.5t-126 93.5t-165.5 29q-84 0 -160 -31t-129 -98t-53 -156zM297 1020q0 -69 42.5 -122 t108 -80t140.5 -27q71 0 138 28t112 83t45 122q0 109 -80.5 176.5t-214.5 67.5q-137 0 -214 -70t-77 -178z" />
<glyph unicode="9" d="M63 958q0 111 41.5 198t112.5 140.5t160 81t190 27.5q262 0 402.5 -166t140.5 -475q0 -140 -23 -258t-73.5 -217t-126.5 -167.5t-186 -106.5t-248 -38q-125 0 -215 33q-28 9 -19 35l29 80q3 26 33 16q104 -28 174 -28q215 0 340 130t149 367q-182 -67 -385 -67 q-101 0 -189 25.5t-157.5 75t-109.5 130.5t-40 184zM217 969q0 -128 88 -209.5t242 -81.5q185 0 407 67q2 35 2 70q0 201 -112 330t-279 129q-93 0 -171 -33.5t-127.5 -104t-49.5 -167.5z" />
<glyph unicode=":" horiz-adv-x="534" d="M145 102q0 52 35.5 87.5t89.5 35.5t88.5 -33.5t34.5 -87.5t-34.5 -89t-88.5 -35t-89.5 34t-35.5 88zM145 907q0 51 35.5 86t89.5 35t88.5 -33.5t34.5 -87.5t-34.5 -89.5t-88.5 -35.5t-89.5 35.5t-35.5 89.5z" />
<glyph unicode=";" horiz-adv-x="522" d="M139 -223l31 418q4 34 37 34h141q18 0 27 -10t4 -22l-121 -418q-5 -18 -12 -24.5t-25 -6.5h-49q-18 0 -26.5 7.5t-6.5 21.5zM162 905q0 52 35 87.5t88 35.5q54 0 88.5 -34.5t34.5 -88.5t-34.5 -88.5t-88.5 -34.5t-88.5 34.5t-34.5 88.5z" />
<glyph unicode="&#x3c;" d="M106 672v55q0 22 9 32t35 23l909 432q26 12 26 -20v-84q0 -19 -4 -27t-20 -14l-764 -360l754 -349q19 -11 24.5 -19t5.5 -26v-96q0 -25 -24 -16l-907 426q-3 2 -10 5.5t-9.5 5t-7.5 5t-7 5.5t-4.5 5.5t-4 7.5t-1.5 9z" />
<glyph unicode="=" d="M143 471v84q0 15 4.5 21t20.5 6h858q16 0 20.5 -6t4.5 -21v-84q0 -18 -4 -23.5t-21 -5.5h-858q-17 0 -21 5.5t-4 23.5zM143 834v84q0 15 4.5 20.5t20.5 5.5h858q16 0 20.5 -5.5t4.5 -20.5v-84q0 -18 -4 -23.5t-21 -5.5h-858q-17 0 -21 5.5t-4 23.5z" />
<glyph unicode="&#x3e;" d="M106 1110v84q0 32 27 20l909 -432q26 -13 34.5 -23t8.5 -32v-55q0 -5 -1 -9t-4 -7.5t-4.5 -5.5t-7 -5.5t-7 -4.5t-9.5 -5.5t-10 -5.5l-907 -426q-26 -9 -26 16v96q0 19 5.5 26.5t26.5 18.5l752 349l-762 360q-16 6 -20.5 14t-4.5 27z" />
<glyph unicode="?" horiz-adv-x="1060" d="M119 1276q-15 21 6 39q87 68 199 102.5t211 34.5q201 0 320.5 -93.5t119.5 -264.5q0 -105 -58.5 -190t-156.5 -163q-7 -6 -40.5 -34t-42 -35.5t-36 -33t-36 -37t-27 -35t-25 -41t-13.5 -40.5t-8 -47v-76q0 -24 -24 -24h-105q-22 0 -22 22v80q0 34 7.5 66.5t15.5 56.5 t29 53.5t32.5 45.5t42.5 44.5t42 38t48 40t45 36.5q85 70 130.5 131.5t45.5 139.5q0 98 -72 160.5t-212 62.5q-82 0 -171.5 -29t-158.5 -82q-24 -18 -39 0zM334 100q0 51 35.5 85t89.5 34q40 0 77 -28.5t37 -90.5q0 -52 -32.5 -86t-85.5 -34q-54 0 -87.5 33t-33.5 87z" />
<glyph unicode="@" horiz-adv-x="1949" d="M143 662q0 172 66 323.5t180.5 260.5t277 172t347.5 63q175 0 320.5 -50t251.5 -145t165 -239.5t59 -325.5q0 -220 -112 -355t-293 -135q-98 0 -158 35.5t-80 93.5q-55 -42 -137 -70t-156 -28q-138 0 -210 67t-72 187q0 128 90 208.5t260 80.5h205v37q0 86 -41.5 130 t-155.5 44q-100 0 -223 -35q-13 -6 -22 -4t-13 18l-14 60q-10 23 20 35q105 43 269 43q311 0 311 -275v-354q0 -158 149 -158q122 0 192.5 101t70.5 268q0 309 -183 481t-495 172q-165 0 -305.5 -55t-236.5 -150.5t-150 -225t-54 -275.5q0 -207 93.5 -366.5t259.5 -246 t378 -86.5q127 0 242 37q17 6 25 4t12 -18l18 -52q4 -16 -1 -22.5t-21 -13.5q-131 -48 -279 -48q-251 0 -444.5 102t-299.5 286.5t-106 423.5zM723 516q0 -74 50.5 -109.5t127.5 -35.5q52 0 119 20.5t127 63.5v233h-201q-27 0 -52 -2.5t-58 -13t-56.5 -28t-40 -51 t-16.5 -77.5z" />
<glyph unicode="A" horiz-adv-x="1239" d="M31 33l473 1333q18 44 34 57.5t56 14.5h53q45 0 62.5 -14.5t31.5 -57.5l467 -1333q3 -6 3 -12q0 -5 -2 -10q-5 -11 -21 -11h-115q-20 0 -27.5 4t-13.5 23l-108 315h-609q-8 -18 -54 -157t-54 -158q-9 -27 -37 -27h-117q-15 0 -21 10q-3 5 -3 11t2 12zM358 483h521 l-154 469l-100 312h-11l-98 -303z" />
<glyph unicode="B" horiz-adv-x="1296" d="M154 94v1245q0 50 21.5 73.5t74.5 23.5l459 2q123 0 214.5 -35.5t147 -116t55.5 -199.5q0 -95 -48.5 -172.5t-139.5 -117.5v-13q89 -26 147.5 -86.5t80.5 -129t22 -146.5q0 -187 -129.5 -304.5t-327.5 -117.5h-481q-51 0 -73.5 21.5t-22.5 72.5zM313 145h398 q74 0 131.5 19.5t90.5 49t54.5 70t29 77t7.5 75.5q0 126 -82.5 201.5t-232.5 75.5h-396v-568zM313 844h392q32 0 64.5 6t68 22t62 41.5t44 67.5t17.5 96q0 95 -63.5 155t-172.5 60h-412v-448z" />
<glyph unicode="C" horiz-adv-x="1204" d="M113 696q0 347 167.5 552.5t444.5 205.5q215 0 381 -86q25 -11 8 -41l-39 -78q-12 -21 -33 -12q-149 70 -311 70q-116 0 -205.5 -50.5t-143.5 -137t-81 -194t-27 -229.5q0 -128 24.5 -228.5t77.5 -179t145 -121t218 -42.5q168 0 338 80q30 11 41 -15l33 -71q7 -17 7 -26 q0 -10 -15 -19q-160 -97 -430 -97q-289 0 -444.5 177.5t-155.5 541.5z" />
<glyph unicode="D" horiz-adv-x="1366" d="M154 94v1245q0 50 21.5 73.5t74.5 23.5l360 2q313 0 478 -189t165 -522q0 -220 -66.5 -381t-208 -253.5t-347.5 -92.5h-381q-51 0 -73.5 21.5t-22.5 72.5zM313 145h299q129 0 223.5 43t149 122.5t80 181.5t25.5 231q0 97 -15 179t-51 155.5t-91 124.5t-139 80.5 t-192 29.5h-289v-1147z" />
<glyph unicode="E" horiz-adv-x="1161" d="M154 338v758q0 152 81.5 246t251.5 94h555q19 0 26 -8.5t7 -28.5v-72q0 -21 -6.5 -28t-26.5 -7h-553q-93 0 -135.5 -42.5t-42.5 -131.5v-287h666q19 0 25 -7t6 -27v-68q0 -18 -6.5 -26.5t-24.5 -8.5h-666v-377q0 -172 178 -172h568q20 0 26.5 -7.5t6.5 -28.5v-72 q0 -20 -7 -28.5t-26 -8.5h-570q-333 0 -333 338z" />
<glyph unicode="F" horiz-adv-x="1136" d="M154 33v1063q0 340 333 340h564q19 0 25.5 -8.5t6.5 -28.5v-72q0 -21 -6 -28t-26 -7h-562q-93 0 -135.5 -42.5t-42.5 -131.5v-305h658q19 0 24.5 -7t5.5 -28v-67q0 -21 -5.5 -29t-24.5 -8h-658v-641q0 -20 -7 -26.5t-28 -6.5h-86q-20 0 -28 7t-8 26z" />
<glyph unicode="G" horiz-adv-x="1318" d="M113 700q0 348 168.5 551t453.5 203q227 0 393 -86q21 -12 9 -41l-39 -86q-13 -22 -35 -12q-141 69 -324 69q-97 0 -176 -32t-132 -87.5t-89 -133t-52 -164.5t-16 -185q0 -131 23.5 -232t75 -180t142 -121t216.5 -42q175 0 309 59v490q-49 10 -122 10q-144 0 -283 -68 q-4 -1 -11.5 -4.5t-10 -4t-7 0t-7.5 4t-7 10.5l-33 72q-12 20 10 39q65 44 157.5 69t184.5 25q85 0 168 -12q66 -12 91.5 -42.5t25.5 -98.5v-529q0 -46 -33 -63q-97 -58 -221 -79.5t-227 -21.5q-287 0 -444.5 179.5t-157.5 543.5z" />
<glyph unicode="H" horiz-adv-x="1392" d="M154 27v1380q0 16 6.5 21.5t21.5 5.5h105q17 0 22.5 -5t5.5 -22v-580h766v580q0 17 5.5 22t23.5 5h100q18 0 23.5 -5t5.5 -22v-1380q0 -17 -5.5 -22t-23.5 -5h-100q-18 0 -23.5 5t-5.5 22v661h-766v-661q0 -17 -5.5 -22t-22.5 -5h-105q-15 0 -21.5 5.5t-6.5 21.5z" />
<glyph unicode="I" horiz-adv-x="530" d="M184 27v1380q0 17 5.5 22t23.5 5h102q18 0 23.5 -5t5.5 -22v-1380q0 -17 -5.5 -22t-23.5 -5h-102q-18 0 -23.5 5t-5.5 22z" />
<glyph unicode="J" horiz-adv-x="1155" d="M14 105v4q0 7 6 22l43 80q12 21 39 6q73 -46 170 -71t193 -25q194 0 279 106.5t85 327.5v852q0 16 7 21.5t22 5.5h100q18 0 23.5 -5t5.5 -22v-864q0 -276 -130.5 -421t-397.5 -145q-256 0 -428 113q-14 9 -17 15z" />
<glyph unicode="K" horiz-adv-x="1271" d="M154 27v1380q0 16 6.5 21.5t21.5 5.5h99q17 0 22.5 -5t5.5 -22v-770l8 -2l199 252l424 524q20 23 57 23h127q14 0 18.5 -7t-5.5 -18l-387 -479l499 -895q5 -11 5 -19q0 -16 -21 -16h-111q-28 0 -40 5.5t-23 27.5l-420 764l-330 -410v-360q0 -17 -5.5 -22t-22.5 -5h-99 q-15 0 -21.5 5.5t-6.5 21.5z" />
<glyph unicode="L" horiz-adv-x="1114" d="M154 340v1069q0 29 28 29h101q28 0 28 -29v-1079q0 -94 45 -139.5t142 -45.5h569q16 0 21.5 -6.5t5.5 -21.5v-86q0 -18 -5 -24.5t-22 -6.5h-584q-329 0 -329 340z" />
<glyph unicode="M" horiz-adv-x="1640" d="M154 27v1319q0 46 18 68t68 22h47q42 0 61 -14t37 -60q289 -705 307 -744q12 -25 62 -151.5t61 -151.5h8q10 23 60.5 147.5t60.5 147.5q127 296 309 752q18 46 38.5 60t60.5 14h47q51 0 69.5 -22.5t18.5 -67.5v-1319q0 -16 -7 -21.5t-22 -5.5h-96q-18 0 -23.5 5t-5.5 22 v1132h-10l-102 -252l-130 -312t-151 -357q-18 -43 -35 -57.5t-57 -14.5h-55q-40 0 -58.5 14.5t-36.5 57.5q-252 603 -286 675l-95 230h-12v-1116q0 -17 -5.5 -22t-23.5 -5h-94q-17 0 -22.5 5t-5.5 22z" />
<glyph unicode="N" horiz-adv-x="1392" d="M154 27v1319q0 46 19.5 68t68.5 22h45q36 0 53.5 -14.5t44.5 -59.5l516 -844l174 -295h8v1186q0 17 5.5 22t23.5 5h98q15 0 22 -5.5t7 -21.5v-1319q0 -46 -18.5 -68t-67.5 -22h-47q-38 0 -55 14.5t-45 61.5l-535 872l-156 262h-6v-1183q0 -17 -5.5 -22t-22.5 -5h-99 q-15 0 -21.5 5.5t-6.5 21.5z" />
<glyph unicode="O" horiz-adv-x="1425" d="M113 715q0 350 164.5 545.5t435.5 195.5q293 0 446.5 -192.5t153.5 -542.5q0 -360 -153.5 -552t-450.5 -192q-296 0 -446 193t-150 545zM270 721q0 -602 441 -602q98 0 174.5 32.5t126 87.5t81.5 132.5t45 161.5t13 182q0 99 -12 182.5t-42 162.5t-78 134t-125 88 t-177 33q-114 0 -201.5 -47.5t-140 -130.5t-79 -188t-26.5 -228z" />
<glyph unicode="P" horiz-adv-x="1218" d="M154 25v1316q0 50 20.5 72.5t73.5 22.5h473q190 0 309 -116.5t119 -301.5q0 -51 -11 -104t-42.5 -113t-79.5 -105.5t-129.5 -75.5t-184.5 -30h-393v-565q0 -17 -5 -21t-23 -4h-101q-15 0 -20.5 4.5t-5.5 20.5zM309 729h375q142 0 221.5 73.5t79.5 207.5q0 39 -8.5 76.5 t-30.5 75t-55 65.5t-87 45.5t-122 17.5h-373v-561z" />
<glyph unicode="Q" horiz-adv-x="1425" d="M113 715q0 348 164.5 544.5t435.5 196.5q292 0 446 -192.5t154 -542.5q0 -360 -153.5 -552t-450.5 -192q-296 0 -446 193t-150 545zM270 721q0 -602 439 -602q98 0 175 32.5t126.5 87.5t81.5 132.5t45.5 162t13.5 181.5q0 598 -434 598q-92 0 -166.5 -31t-126 -85.5 t-87 -129.5t-51.5 -161.5t-16 -184.5zM655 -156q0 18 4 22.5t21 4.5h217q150 0 276 -34t197 -85q14 -10 14 -23q0 -7 -4 -14l-41 -65q-10 -17 -25 -17q-8 0 -18 5q-173 98 -432 98h-184q-16 0 -20.5 6.5t-4.5 21.5v80z" />
<glyph unicode="R" horiz-adv-x="1263" d="M154 27v1314q0 50 21.5 73.5t74.5 23.5h465q192 0 308 -112t116 -286q0 -125 -62.5 -220t-177.5 -136v-6q80 -27 119 -76.5t65 -136.5l121 -434q3 -6 3 -11q-1 -5 -3 -10q-6 -10 -22 -10h-113q-27 0 -33 23l-110 397q-35 118 -106 163.5t-183 45.5h-322v-602 q0 -17 -5.5 -22t-22.5 -5h-105q-17 0 -22.5 5t-5.5 22zM317 768h367q147 0 220 71t73 193q0 110 -69.5 184t-211.5 74h-379v-522z" />
<glyph unicode="S" horiz-adv-x="1150" d="M72 123l41 90q8 19 30 10q98 -47 224 -74.5t225 -27.5q147 0 243.5 63t96.5 185q0 108 -86 177t-279 134q-119 39 -196.5 75t-135 83t-83 105.5t-25.5 137.5q0 169 122.5 273t338.5 104q232 0 409 -84q22 -10 13 -31l-39 -96q-10 -16 -25 -10q-190 78 -362 78 q-131 0 -213 -62t-82 -161q0 -25 5 -47t12 -40t23.5 -35.5t30 -30t41.5 -28t47.5 -25t59 -25.5t65 -25.5l76.5 -28.5q84 -29 143.5 -54.5t120 -63t97.5 -80t60.5 -101.5t23.5 -131q0 -191 -137 -295.5t-367 -104.5q-124 0 -261 26.5t-249 84.5q-13 6 -13 18q0 7 5 17z" />
<glyph unicode="T" horiz-adv-x="1101" d="M29 1321v84q0 18 4 23.5t20 5.5h996q17 0 21.5 -5.5t4.5 -23.5v-84q0 -17 -4.5 -22t-21.5 -5h-424v-1267q0 -17 -5.5 -22t-19.5 -5h-108q-18 0 -23.5 5t-5.5 22v1267h-410q-17 0 -20.5 4.5t-3.5 22.5z" />
<glyph unicode="U" horiz-adv-x="1384" d="M154 612v795q0 17 3.5 22t14.5 5h121q11 0 15.5 -5.5t4.5 -21.5v-782q0 -95 6.5 -161.5t25 -127t50.5 -99t83.5 -67t124.5 -41t173 -12.5q155 0 299 28v1262q0 17 4 22t15 5h120q11 0 14 -5t3 -22v-1247q0 -67 -29.5 -106t-101.5 -52q-156 -27 -330 -27t-288 30.5 t-189 105t-107 195t-32 306.5z" />
<glyph unicode="V" horiz-adv-x="1261" d="M35 1413q-4 7 -4 13q0 10 18 10h123q22 0 31 -21q7 -29 128.5 -386.5t184.5 -530.5q4 -17 28.5 -88.5t52 -150t32.5 -95.5h10l106 330l314 921q4 11 9 15.5t9 5t19 0.5h118q16 0 16 -11q0 -5 -3 -12l-471 -1345q-12 -37 -28.5 -52t-51.5 -16h-74q-38 0 -56.5 13.5 t-35.5 54.5z" />
<glyph unicode="W" horiz-adv-x="1693" d="M32 1430q4 6 15 6h121q28 0 31 -21l174 -889l63 -338h10l80 340l201 832q7 36 27 56t63 20h70q66 0 82 -76l198 -825l78 -347h10l68 349l176 878q3 21 29 21h119q11 0 15 -6q2 -3 1 -7q0 -4 -2 -10l-289 -1345q-10 -40 -30.5 -54t-59.5 -14h-74q-33 0 -50 18.5t-28 59.5 l-215 880l-65 299h-6l-68 -303l-217 -876q-16 -78 -78 -78h-73q-39 0 -60 14.5t-31 53.5l-284 1345q-2 6 -2 10q-1 4 1 7z" />
<glyph unicode="X" horiz-adv-x="1122" d="M25 25l444 718l-410 670q-5 6 -0.5 14.5t15.5 8.5h119q24 0 32 -4t15 -21l323 -537l322 537q16 25 49 25h110q28 0 13 -27l-406 -661l447 -723q3 -4 3 -8q-1 -4 -3 -8q-4 -9 -15 -9h-122q-32 0 -48 25l-354 593l-354 -593q-16 -25 -47 -25h-119q-19 0 -19 11q0 6 5 14z " />
<glyph unicode="Y" horiz-adv-x="1118" d="M24 1428q4 8 15 8h127q25 0 35 -23l202 -379l158 -307h8l164 317l197 369q10 23 35 23h118q9 0 12 -8q2 -4 2 -8q0 -3 -1 -5l-455 -833v-555q0 -17 -5 -22t-22 -5h-98q-18 0 -23.5 5t-5.5 22v553l-462 835q-3 3 -3 7q0 3 2 6z" />
<glyph unicode="Z" horiz-adv-x="1220" d="M55 76v26q0 52 35 95q78 99 442.5 546t442.5 547l-2 6h-783q-17 0 -21.5 5.5t-4.5 23.5v82q0 18 4.5 23.5t21.5 5.5h861q49 0 70.5 -18t21.5 -64v-35q0 -49 -49 -109q-671 -822 -858 -1063q4 -4 4 -10h886q17 0 21 -5t4 -23v-80q0 -18 -4 -23.5t-21 -5.5h-985 q-86 0 -86 76z" />
<glyph unicode="[" horiz-adv-x="616" d="M139 -135v1581q0 18 4 23.5t21 5.5h371q17 0 21.5 -5.5t4.5 -23.5v-64q0 -15 -5 -20.5t-21 -5.5h-246v-1401h246q17 0 21.5 -5t4.5 -22v-63q0 -18 -4.5 -23.5t-21.5 -5.5h-371q-17 0 -21 5.5t-4 23.5z" />
<glyph unicode="\" horiz-adv-x="862" d="M27 1569q-4 12 3.5 19t16.5 7h96q16 0 22 -5.5t13 -20.5l666 -1741q8 -25 -23 -25h-94q-26 0 -35 25z" />
<glyph unicode="]" horiz-adv-x="616" d="M102 -70q0 15 5.5 21t21.5 6h246v1401h-246q-17 0 -22 4.5t-5 21.5v64q0 15 5.5 22t21.5 7h371q16 0 20 -6.5t4 -22.5v-1581q0 -18 -4 -23.5t-20 -5.5h-371q-17 0 -22 5.5t-5 23.5v63z" />
<glyph unicode="^" horiz-adv-x="1060" d="M67 783.5q-3 9.5 5 21.5l374 635q10 16 16 24.5t16.5 15.5t23.5 7h33q24 0 34.5 -8.5t24.5 -34.5l377 -641q7 -12 1.5 -19.5t-18.5 -7.5h-100q-32 0 -41 25l-289 504h-4q-187 -320 -280 -498q-11 -20 -19.5 -26.5t-27.5 -6.5h-107q-16 0 -19 9.5z" />
<glyph unicode="_" horiz-adv-x="1024" d="M-23 -180q0 15 4.5 20.5t20.5 5.5h1020q16 0 20.5 -5.5t4.5 -20.5v-43q0 -18 -4 -22.5t-21 -4.5h-1020q-17 0 -21 4.5t-4 22.5v43z" />
<glyph unicode="`" horiz-adv-x="974" d="M342 1522q-19 22 12 28l123 31q16 1 23 -3.5t12 -16.5l133 -306q6 -18 5 -20.5t-13 -7.5l-51 -19q-21 -9 -37 13z" />
<glyph unicode="a" horiz-adv-x="1085" d="M90 313q0 162 111.5 262.5t326.5 100.5h273v55q0 57 -10.5 96.5t-38 73t-80.5 50t-133 16.5q-66 0 -147.5 -13t-139.5 -32q-28 -9 -35 12l-20 74q-6 21 16 30q151 60 350 60q389 0 389 -346v-658q0 -37 -28 -49q-164 -68 -398 -68q-436 0 -436 336zM240 313 q0 -211 284 -211q51 0 132 10.5t143 32.5v400h-264q-37 0 -69.5 -3.5t-76.5 -17.5t-74.5 -37t-52.5 -68t-22 -106z" />
<glyph unicode="b" horiz-adv-x="1130" d="M133 80v1390q0 16 7 21.5t22 5.5h94q17 0 22 -5t5 -22v-421q64 22 147.5 35.5t149.5 13.5q117 0 205.5 -40.5t143.5 -114.5t82 -172.5t27 -219.5q0 -126 -29.5 -229.5t-88 -181t-153 -120.5t-218.5 -43q-226 0 -393 68q-23 10 -23 35zM283 145q111 -39 264 -39 q155 0 246.5 107.5t91.5 327.5q0 208 -85 317t-237 109q-147 0 -280 -49v-773z" />
<glyph unicode="c" horiz-adv-x="968" d="M92 526q0 264 130 418t353 154q163 0 299 -72q26 -16 11 -37l-37 -69q-5 -12 -11 -14.5t-24 3.5q-123 56 -238 56q-86 0 -152 -36t-104.5 -98t-57.5 -139t-19 -166q0 -420 336 -420q141 0 256 64q18 6 23.5 4t12.5 -14l33 -72q7 -8 7 -15q0 -11 -15 -22 q-140 -74 -338 -74q-230 0 -347.5 137.5t-117.5 411.5z" />
<glyph unicode="d" horiz-adv-x="1128" d="M92 522q0 117 29.5 219t88 183t154 127.5t218.5 46.5q147 0 262 -37v409q0 17 5.5 22t22.5 5h97q14 0 20 -5.5t6 -21.5v-1388q0 -24 -20 -33q-170 -72 -416 -72q-467 0 -467 545zM248 522q0 -223 87.5 -319.5t250.5 -96.5q57 0 131.5 12.5t126.5 31.5v776 q-125 43 -252 43q-157 0 -250.5 -113t-93.5 -334z" />
<glyph unicode="e" horiz-adv-x="1091" d="M92 532q0 268 129 417t338 149q223 0 335 -124.5t112 -334.5q0 -80 -36.5 -110.5t-101.5 -30.5h-624q0 -104 26.5 -181t74 -121.5t107.5 -65.5t134 -21q139 0 241 57q26 13 35 -8l37 -72q13 -25 -10 -35q-125 -74 -314 -74q-233 0 -358 136t-125 419zM250 621h612 q0 350 -303 350q-139 0 -220 -98.5t-89 -251.5z" />
<glyph unicode="f" horiz-adv-x="679" d="M16 979v39q0 25 27 31q117 26 162 26v150q0 286 291 286q119 0 196 -24q9 -3 12.5 -7t3.5 -9.5t-1 -12.5l-17 -80q-7 -17 -26 -14q-69 14 -142 14q-94 0 -131 -38.5t-37 -110.5v-154h277q16 0 20 -5.5t4 -20.5v-70q0 -13 -4 -19t-20 -6h-277v-929q0 -17 -4.5 -21 t-21.5 -4h-95q-18 0 -23 4t-5 21v929h-162q-27 0 -27 25z" />
<glyph unicode="g" horiz-adv-x="1128" d="M92 524q0 126 29 229t88 180.5t153.5 120t219.5 42.5q231 0 393 -66q22 -13 22 -35v-919q0 -135 -33 -230.5t-100.5 -156t-157.5 -94t-217 -50.5h-6q-19 0 -24 19l-13 94q0 20 21 23q77 13 130.5 27.5t103.5 39.5t79 59.5t46.5 86t17.5 120.5v13q-64 -23 -146.5 -36.5 t-146.5 -13.5q-117 0 -206 40.5t-143.5 114.5t-82 172.5t-27.5 219.5zM246 532q0 -209 83.5 -317.5t237.5 -108.5q143 0 279 50v772q-116 41 -262 41q-156 0 -247 -108t-91 -329z" />
<glyph unicode="h" horiz-adv-x="1136" d="M133 27v1443q0 16 7 21.5t22 5.5h92q18 0 23.5 -5t5.5 -22v-423q128 51 297 51q224 0 325 -122t101 -353l-2 -596q0 -16 -6 -21.5t-21 -5.5h-96q-18 0 -23.5 5t-5.5 22v600q0 174 -72 257t-225 83q-166 0 -272 -49v-891q0 -17 -5.5 -22t-23.5 -5h-92q-15 0 -22 5.5 t-7 21.5z" />
<glyph unicode="i" horiz-adv-x="503" d="M150 1370q0 43 30.5 74t71.5 31q42 0 72 -31t30 -74t-29.5 -71.5t-72.5 -28.5q-42 0 -72 29t-30 71zM176 27v1022q0 16 7 21t22 5h92q18 0 23.5 -4.5t5.5 -21.5v-1022q0 -17 -5.5 -22t-23.5 -5h-92q-15 0 -22 5.5t-7 21.5z" />
<glyph unicode="j" horiz-adv-x="532" d="M-55 -346q-3 5 -3 10q0 12 19 19q73 31 121.5 75.5t73 101.5t34 114t9.5 130v945q0 16 6.5 21t21.5 5h97q17 0 21.5 -4.5t4.5 -21.5v-924q0 -107 -18.5 -194.5t-49 -147t-77 -106.5t-94 -76t-107.5 -52q-7 -3 -13 -3q-13 0 -16 18zM172 1370q0 43 30 74t72 31 q41 0 72 -31t31 -74q0 -42 -30.5 -71t-72.5 -29q-43 0 -72.5 28.5t-29.5 71.5z" />
<glyph unicode="k" horiz-adv-x="987" d="M131 27v1443q0 16 7 21.5t22 5.5h94q17 0 22 -5t5 -22v-944l8 -4l450 537q13 16 33 16h131q10 0 12 -8t-4 -14l-276 -332l321 -701q3 -3 3 -7q0 -3 -2 -6q-4 -7 -15 -7h-111q-27 0 -36 20l-263 580l-251 -293v-280q0 -17 -5 -22t-22 -5h-94q-15 0 -22 5.5t-7 21.5z" />
<glyph unicode="l" horiz-adv-x="524" d="M154 174v1296q0 17 5.5 22t22.5 5h94q18 0 23.5 -5t5.5 -22v-1251q0 -60 16 -83t60 -23q5 0 74 6q21 3 24 -17l10 -67v-9q1 -10 -1 -13q-2 -5 -17 -11q-57 -22 -143 -22q-96 0 -135 46.5t-39 147.5z" />
<glyph unicode="m" horiz-adv-x="1804" d="M137 27v915q0 117 111 135q139 21 235 21q124 0 208 -27.5t147 -89.5h2q169 117 391 117q122 0 208.5 -35t136 -102.5t71.5 -155.5t22 -205v-575q0 -17 -4.5 -21t-22.5 -4h-92q-18 0 -23 4t-5 21v544q0 207 -70 301.5t-240 94.5q-63 0 -149 -23.5t-145 -58.5 q49 -95 49 -301v-557q0 -17 -5.5 -21t-23.5 -4h-92q-15 0 -21 4.5t-6 20.5v561q0 97 -15 164t-52 117t-102 74t-161 24q-90 0 -202 -21v-917q0 -17 -5.5 -22t-23.5 -5h-92q-15 0 -22 5.5t-7 21.5z" />
<glyph unicode="n" horiz-adv-x="1136" d="M133 27v915q0 117 111 135q139 21 268 21q263 0 377.5 -119.5t114.5 -396.5v-555q0 -17 -5.5 -22t-23.5 -5h-94q-15 0 -22 5.5t-7 21.5v546q0 103 -15.5 172.5t-54 121t-107.5 75t-173 23.5q-107 0 -219 -21v-917q0 -17 -5.5 -22t-23.5 -5h-92q-15 0 -22 5.5t-7 21.5z " />
<glyph unicode="o" horiz-adv-x="1126" d="M92 537q0 265 130.5 413t342.5 148q227 0 348 -145t121 -410q0 -275 -123 -420.5t-352 -145.5q-228 0 -347.5 142.5t-119.5 417.5zM242 543q0 -441 319 -441q89 0 154 37t100.5 101.5t51.5 138t16 158.5q0 434 -318 434q-83 0 -146.5 -34t-101.5 -94.5t-56.5 -135.5 t-18.5 -164z" />
<glyph unicode="p" horiz-adv-x="1128" d="M133 -391v1382q0 23 23 33q170 74 411 74q158 0 265 -72t155.5 -194.5t48.5 -290.5q0 -120 -29.5 -221.5t-87 -178.5t-148.5 -120.5t-208 -43.5q-149 0 -280 39v-407q0 -17 -4.5 -21t-22.5 -4h-94q-16 0 -22.5 4.5t-6.5 20.5zM283 150q130 -44 258 -44q157 0 248.5 105.5 t91.5 329.5q0 118 -24 202.5t-70 133t-106 70.5t-138 22q-61 0 -134.5 -11.5t-125.5 -33.5v-774z" />
<glyph unicode="q" horiz-adv-x="1130" d="M92 524q0 126 29.5 229.5t88 181t153.5 120.5t219 43q226 0 393 -68q22 -9 22 -35v-1390q0 -17 -5.5 -22t-22.5 -5h-95q-17 0 -22.5 5t-5.5 22v422q-66 -21 -150.5 -35.5t-144.5 -14.5q-117 0 -206 40.5t-143.5 114.5t-82 172.5t-27.5 219.5zM246 535q0 -209 84 -317.5 t239 -108.5q144 0 277 49v772q-111 39 -260 39q-156 0 -248 -107t-92 -327z" />
<glyph unicode="r" horiz-adv-x="835" d="M152 27v923q0 66 22 95.5t86 39.5q99 13 170 13q236 0 401 -142q8 -8 8 -16q0 -6 -5 -12l-64 -82q-15 -15 -31 -2q-126 119 -299 119q-82 0 -141 -15v-921q0 -17 -5.5 -22t-23.5 -5h-92q-14 0 -20 5.5t-6 21.5z" />
<glyph unicode="s" horiz-adv-x="929" d="M74 94l32 70q9 24 39 14q158 -74 328 -74q108 0 172 44t64 128q0 76 -63 124t-204 100q-180 63 -251.5 129.5t-71.5 179.5q0 128 94.5 208.5t263.5 80.5q173 0 318 -60q23 -10 14 -34l-33 -80q-10 -17 -28 -9q-142 56 -275 56q-93 0 -150 -43t-57 -111q0 -73 54.5 -113.5 t203.5 -93.5q60 -22 103.5 -42t89 -49t73.5 -61.5t46 -77t18 -97.5q0 -147 -105 -226.5t-276 -79.5q-234 0 -387 80q-17 7 -17 21q0 7 5 16z" />
<glyph unicode="t" horiz-adv-x="739" d="M41 979v49q0 15 4.5 21t20.5 10l161 26l29 199q1 18 7 24.5t24 12.5l55 20q5 1 9 1q20 0 20 -23v-244h239q16 0 20.5 -6t4.5 -20v-70q0 -14 -4.5 -19.5t-20.5 -5.5h-239v-690q0 -79 32.5 -115t116.5 -36q76 0 158 16q17 1 21 -1t6 -13l16 -78q2 -5 2 -10q1 -4 -1 -8 q-2 -8 -15 -13q-86 -26 -209 -26q-152 0 -215.5 64.5t-63.5 207.5v702h-153q-16 0 -20.5 6t-4.5 19z" />
<glyph unicode="u" horiz-adv-x="1124" d="M133 481v570q0 17 5.5 21.5t23.5 4.5h92q18 0 23.5 -4.5t5.5 -21.5v-557q0 -107 12.5 -173t49 -116t103.5 -71t175 -21q110 0 217 20v918q0 17 5 21.5t23 4.5h95q15 0 21.5 -5t6.5 -21v-918q0 -114 -112 -135q-137 -18 -267 -18q-264 0 -371.5 112t-107.5 389z" />
<glyph unicode="v" horiz-adv-x="976" d="M23 1057q-3 5 -3 9q0 9 17 9h115q8 0 12.5 -2.5t6 -4.5t5.5 -9l215 -615l98 -311h11l94 307l209 619q3 16 24 16h113q17 0 14 -18l-340 -985q-19 -48 -34.5 -64t-53.5 -16h-67q-36 0 -54.5 15.5t-35.5 62.5z" />
<glyph unicode="w" horiz-adv-x="1443" d="M23 1059q-1 5 -1 8q0 12 15 12h115q11 0 15 -3.5t9 -14.5l133 -643l53 -262h11l73 245l166 560q20 69 86 69h54q18 0 30.5 -4.5t21 -17t12.5 -22t11 -30.5l162 -528l84 -285h10l56 285l131 633q3 8 5.5 11t6.5 5t12 2h113q15 0 15 -12q0 -4 -1 -8l-223 -985 q-10 -47 -32.5 -64.5t-57.5 -17.5h-59q-41 0 -58.5 15.5t-29.5 60.5l-150 483l-86 303h-6l-86 -309l-152 -477q-12 -39 -30 -57.5t-56 -18.5h-65q-35 0 -54.5 17t-29.5 65z" />
<glyph unicode="x" horiz-adv-x="929" d="M20 27l359 544l-309 478q-4 5 -5 10.5t2.5 10.5t14.5 5h115q28 0 39 -20l233 -377l236 377q7 12 13.5 16t22.5 4h111q15 0 17.5 -8.5t-3.5 -13.5l-315 -475l360 -553q5 -7 5 -12q0 -4 -2 -8q-4 -5 -15 -5h-125q-19 0 -25.5 4t-13.5 16l-272 445l-281 -442 q-13 -23 -39 -23h-110q-18 0 -18 11q0 7 5 16z" />
<glyph unicode="y" horiz-adv-x="980" d="M25 1055q-1 5 -1 8q0 12 15 12h113q13 0 17 -3.5t9 -14.5q154 -479 201 -608q9 -22 51 -170t49 -168h10q19 56 65 200.5t48 151.5q6 15 37.5 106.5t81 234.5t88.5 251q5 12 9.5 16t17.5 4h106q17 0 17 -12q0 -4 -1 -8l-421 -1235q-46 -137 -114 -192.5t-179 -55.5 q-99 0 -164 22q-29 10 -23 31l21 76q8 23 31 14q65 -16 110 -16q71 0 112 28t68 113l62 168h-35q-19 0 -30 2.5t-23 16.5t-21 41z" />
<glyph unicode="z" horiz-adv-x="925" d="M35 61v25q0 52 33 90l649 770v6h-600q-17 0 -22 5.5t-5 19.5v72q0 13 5.5 19.5t21.5 6.5h696q76 0 76 -69v-25q0 -46 -29 -78l-655 -776l2 -4h655q29 0 29 -25v-71q0 -27 -29 -27h-758q-69 0 -69 61z" />
<glyph unicode="{" horiz-adv-x="710" d="M117 649v68q0 20 22 26q65 17 93 68t28 150v202q0 322 313 332q19 0 19 -16v-82q0 -21 -19 -21q-81 -4 -121 -50t-40 -114v-245q0 -213 -142 -281v-6q67 -30 104.5 -98t37.5 -166v-328q0 -69 41 -114.5t120 -51.5q12 0 15.5 -3.5t3.5 -14.5v-88q0 -17 -17 -17 q-139 5 -227 82.5t-88 233.5v291q0 100 -28.5 151t-94.5 68q-9 4 -12 5.5t-5.5 6t-2.5 12.5z" />
<glyph unicode="|" horiz-adv-x="421" d="M137 -252v1819q0 16 7 21t22 5h92q18 0 23.5 -4.5t5.5 -21.5v-1819q0 -17 -5.5 -22t-23.5 -5h-92q-15 0 -22 5.5t-7 21.5z" />
<glyph unicode="}" horiz-adv-x="710" d="M115 -96q0 15 20 18q160 19 160 184v310q0 98 37 166t104 98v6q-141 75 -141 262v250q0 73 -40 122.5t-122 55.5q-18 0 -18 21v82q0 16 20 16q152 -5 231.5 -82.5t79.5 -249.5v-202q0 -99 28.5 -150t92.5 -68q25 -6 25 -26v-68q0 -11 -4 -15t-17 -9q-66 -17 -95.5 -69 t-29.5 -150v-269q0 -163 -83.5 -248t-229.5 -90q-18 0 -18 17v88z" />
<glyph unicode="~" d="M135 586q112 153 260 153q46 0 106.5 -22t109.5 -48.5t105.5 -48.5t94.5 -22q50 0 81 26t71 87q13 19 34 4l52 -33q21 -12 8 -35q-51 -87 -111.5 -126.5t-144.5 -39.5q-46 0 -104.5 21.5t-105.5 47t-102.5 47t-95.5 21.5q-94 0 -174 -94q-16 -23 -33 -6l-45 37 q-18 15 -6 31z" />
<glyph unicode="&#xa2;" d="M186 524q0 248 113 396.5t313 171.5v200q0 23 21 23h37q22 0 22 -23v-194q161 -10 277 -72q16 -10 16 -20q0 -8 -6 -17l-35 -71q-9 -15 -18 -15q-1 0 -17 4q-96 47 -217 56v-857q139 10 238 62q9 6 16 6q13 0 19 -16l32 -72q7 -11 7 -16q0 -10 -15 -19q-124 -68 -297 -71 v-199q0 -23 -22 -23h-37q-21 0 -21 23v199q-426 24 -426 544zM338 526q0 -380 274 -415v845q-95 -16 -158 -80.5t-89.5 -152t-26.5 -197.5z" />
<glyph unicode="&#xa3;" d="M147 686v55q0 18 5 23.5t22 5.5h158q-2 11 -25.5 110t-23.5 144q0 94 32.5 165t91 114t135.5 64.5t171 21.5q189 0 313 -66q25 -11 10 -37l-32 -65q-9 -20 -37 -11q-48 23 -119 36.5t-133 13.5q-125 0 -203 -57t-78 -169q0 -40 22 -142.5t25 -121.5h408q16 0 20 -5.5 t4 -23.5v-55q0 -19 -4 -25t-20 -6h-393q6 -33 6 -110q0 -276 -137 -408h684q16 0 20 -6t4 -22v-80q0 -18 -4 -23.5t-20 -5.5h-836q-34 0 -47.5 11.5t-13.5 35.5v29q0 21 7 36t13.5 22t28.5 28q86 79 118.5 172t32.5 201q0 87 -4 120h-174q-17 0 -22 6.5t-5 24.5z" />
<glyph unicode="&#xa5;" d="M116 1369q4 7 15 7h117q24 0 33 -20l182 -375l129 -283h6l125 283l176 375q9 20 33 20h117q17 0 12 -20l-316 -635h277q27 0 27 -29v-49q0 -29 -27 -29h-838q-26 0 -26 29v49q0 15 5 22t21 7h250l-317 635q-5 6 -1 13zM158 418v49q0 15 5 22t21 7h838q27 0 27 -29v-49 q0 -29 -27 -29h-354v-364q0 -17 -4.5 -21t-22.5 -4h-96q-15 0 -21 4.5t-6 20.5v364h-334q-26 0 -26 29z" />
<glyph unicode="&#xa8;" horiz-adv-x="1124" d="M262 1372q0 37 30 65.5t68 28.5q37 0 67 -29t30 -65q0 -40 -29.5 -69t-67.5 -29q-39 0 -68.5 28.5t-29.5 69.5zM623 1372q0 37 28.5 65.5t69.5 28.5q37 0 66.5 -28t29.5 -66q0 -40 -29 -69t-67 -29q-41 0 -69.5 28.5t-28.5 69.5z" />
<glyph unicode="&#xa9;" horiz-adv-x="1665" d="M94 713q0 208 97 378t267 266.5t378 96.5q155 0 292 -57t235 -155t155 -235.5t57 -293.5q0 -155 -57 -292t-155 -235t-235 -154.5t-292 -56.5q-156 0 -293.5 56.5t-236 154.5t-155.5 235t-57 292zM180 713q0 -139 50.5 -261.5t138 -209.5t209 -137t258.5 -50t258 50 t208 137t137 209.5t50 261.5q0 187 -85.5 338.5t-235 237t-332.5 85.5q-137 0 -258.5 -50.5t-209 -137.5t-138 -210t-50.5 -263zM483 692q0 203 99 323t266 120q161 0 254 -97q12 -14 0 -26l-45 -43q-5 -5 -9 -6t-6 -0.5t-7.5 5.5t-8.5 7q-83 67 -178 67 q-131 0 -197.5 -96.5t-66.5 -253.5q0 -155 67.5 -251.5t196.5 -96.5q44 0 82 13t52 23t44 34q16 16 31 2l43 -37q19 -16 4 -31q-94 -98 -256 -98q-170 0 -267.5 121t-97.5 321z" />
<glyph unicode="&#xab;" horiz-adv-x="964" d="M131 500q0 27 29 75l202 328q9 12 14 17t16 9.5t28 4.5h86q17 0 22.5 -11t-2.5 -24l-245 -401l254 -394q19 -32 -21 -32h-88q-28 0 -38.5 6t-18.5 24l-213 330q-25 45 -25 68zM451 500q0 29 28 75l203 328q18 23 31 28q9 3 24 3h86q17 0 23 -11t-2 -24l-244 -401 l252 -394q19 -32 -21 -32h-88q-26 0 -36.5 6t-18.5 24l-213 330q-24 43 -24 68z" />
<glyph unicode="&#xad;" horiz-adv-x="727" d="M102 522v119q0 15 5.5 21t21.5 6h471q16 0 20.5 -6t4.5 -21v-119q0 -17 -4 -21.5t-21 -4.5h-471q-17 0 -22 4.5t-5 21.5z" />
<glyph unicode="&#xae;" horiz-adv-x="1126" d="M109 989q0 196 131 329.5t325 133.5q192 0 322.5 -134t130.5 -329q0 -191 -133 -325t-320 -134q-194 0 -325 133t-131 326zM182 989q0 -164 109.5 -276.5t273.5 -112.5q159 0 269 113t110 276q0 166 -109 279.5t-270 113.5q-165 0 -274 -113t-109 -280zM371 729v504 q0 24 9.5 34.5t33.5 10.5h184q79 0 126.5 -45t47.5 -117q0 -42 -23.5 -79.5t-62.5 -61.5q51 -20 64 -84l47 -158q5 -6 0.5 -14t-17.5 -8h-43q-15 0 -18 16l-45 152q-20 75 -107 75h-118v-225q0 -18 -21 -18h-41q-16 0 -16 18zM449 1020h137q54 0 81 25.5t27 68.5 q0 39 -26 65.5t-78 26.5h-141v-186z" />
<glyph unicode="&#xb4;" horiz-adv-x="905" d="M403 1234.5q-1 2.5 5 20.5l133 306q5 12 11.5 16.5t22.5 3.5l121 -31q32 -6 13 -28l-207 -301q-16 -22 -37 -13l-49 19q-12 5 -13 7.5z" />
<glyph unicode="&#xb8;" horiz-adv-x="989" d="M375 -367l14 37q9 20 31 11q64 -25 127 -25q112 0 112 78q0 40 -36 61t-93 21q-41 0 -45 4q-25 6 -12 45l53 149q3 6 4 8.5t3.5 5t6 3t9.5 0.5h53q13 0 8 -15l-43 -127q105 -6 154 -50.5t49 -106.5q0 -63 -53 -112.5t-154 -49.5q-100 0 -176 35q-20 9 -12 28z" />
<glyph unicode="&#xbb;" horiz-adv-x="964" d="M111 104l254 394l-246 401q-8 13 -2.5 24t22.5 11h88q16 0 27.5 -5t15 -9t13.5 -17l204 -328q2 -5 10.5 -21t12.5 -28t4 -26q0 -23 -25 -68l-210 -330q-11 -18 -22 -24t-36 -6h-90q-39 0 -20 32zM430 104l254 394l-246 401q-8 13 -2 24t23 11h86q16 0 27.5 -5.5t14 -8.5 t13.5 -17l205 -328q2 -4 10.5 -20.5t12 -28.5t3.5 -26q0 -25 -24 -68l-211 -330q-11 -18 -21.5 -24t-35.5 -6h-88q-40 0 -21 32z" />
<glyph unicode="&#x2c6;" horiz-adv-x="1146" d="M244 1257l256 259q36 36 73 36q26 0 42 -7t38 -29l244 -256q21 -20 2 -39l-29 -27q-16 -10 -36 2l-261 203l-260 -205q-18 -12 -37 4l-30 33q-14 11 -2 26z" />
<glyph unicode="&#x2da;" horiz-adv-x="1069" d="M387 1384q0 78 55.5 130.5t135.5 52.5q79 0 132.5 -52t53.5 -131q0 -77 -53.5 -127.5t-132.5 -50.5q-80 0 -135.5 50.5t-55.5 127.5zM467 1384q0 -47 31.5 -75.5t79.5 -28.5q47 0 76.5 28.5t29.5 75.5q0 48 -29.5 78.5t-76.5 30.5t-79 -31t-32 -78z" />
<glyph unicode="&#x2dc;" horiz-adv-x="1142" d="M231.5 1317q-3.5 6 1.5 18q78 131 209 131q50 0 140 -41t125 -41q67 0 102 62q6 13 12 16t19 -2l59 -18q29 -10 19 -27q-37 -73 -86 -108t-117 -35q-54 0 -144.5 40t-132.5 40q-65 0 -102 -62q-12 -21 -35 -8l-51 23q-15 6 -18.5 12z" />
<glyph unicode="&#x401;" horiz-adv-x="1161" d="M154 338v758q0 152 81.5 246t251.5 94h555q19 0 26 -8.5t7 -28.5v-72q0 -21 -6.5 -28t-26.5 -7h-553q-93 0 -135.5 -42.5t-42.5 -131.5v-287h666q19 0 25 -7t6 -27v-68q0 -18 -6.5 -26.5t-24.5 -8.5h-666v-377q0 -172 178 -172h568q20 0 26.5 -7.5t6.5 -28.5v-72 q0 -20 -7 -28.5t-26 -8.5h-570q-333 0 -333 338zM375 1653q0 37 30 65.5t68 28.5q37 0 66.5 -28.5t29.5 -65.5q0 -41 -29.5 -70t-66.5 -29q-39 0 -68.5 29t-29.5 70zM735 1653q0 37 29 65.5t70 28.5q37 0 66.5 -28t29.5 -66q0 -41 -29 -70t-67 -29q-41 0 -70 29t-29 70z" />
<glyph unicode="&#x402;" horiz-adv-x="1591" d="M29 1319v86q0 18 4 23.5t20 5.5h1143q16 0 21.5 -6t5.5 -21v-88q0 -17 -5 -22t-22 -5h-571v-393q186 59 370 59q235 0 365.5 -132.5t130.5 -358.5q0 -81 -16 -160t-51.5 -160.5t-101.5 -155t-157 -126.5q-21 -9 -32 6l-52 78q-9 19 9 28q119 68 181 196t62 292 q0 170 -97.5 263t-262.5 93q-174 0 -348 -63v-731q0 -17 -5 -22t-22 -5h-106q-18 0 -23.5 5t-5.5 22v1265h-410q-16 0 -20 6t-4 21z" />
<glyph unicode="&#x403;" horiz-adv-x="1093" d="M154 33v1063q0 340 333 340h551q22 0 27.5 -8t5.5 -29v-72q0 -22 -5.5 -28.5t-27.5 -6.5h-549q-93 0 -135.5 -42.5t-42.5 -131.5v-1085q0 -20 -7 -26.5t-28 -6.5h-86q-20 0 -28 7t-8 26zM510 1585q-12 19 6 31l281 199q24 17 39 -3l73 -98q16 -22 -4 -31l-325 -151 q-17 -6 -24.5 -5t-14.5 11z" />
<glyph unicode="&#x404;" horiz-adv-x="1204" d="M113 702q0 346 167.5 549t444.5 203q213 0 379 -86q16 -10 16 -20q0 -9 -6 -21l-41 -78q-10 -16 -18 -16q-1 0 -3 0.5t-5.5 1.5t-6.5 2q-149 70 -311 70q-102 0 -184 -38.5t-136.5 -106t-86.5 -155t-41 -190.5h612q17 0 22 -5.5t5 -23.5v-79q0 -18 -5 -23.5t-22 -5.5 h-621v-2q10 -553 465 -553q172 0 338 78q12 6 21 6q15 0 20 -19l35 -73q6 -15 6 -23q0 -12 -14 -20q-164 -97 -432 -97q-288 0 -443 179.5t-155 545.5z" />
<glyph unicode="&#x405;" horiz-adv-x="1150" d="M72 123l41 90q8 19 30 10q98 -47 224 -74.5t225 -27.5q147 0 243.5 63t96.5 185q0 108 -86 177t-279 134q-119 39 -196.5 75t-135 83t-83 105.5t-25.5 137.5q0 169 122.5 273t338.5 104q232 0 409 -84q22 -10 13 -31l-39 -96q-10 -16 -25 -10q-190 78 -362 78 q-131 0 -213 -62t-82 -161q0 -25 5 -47t12 -40t23.5 -35.5t30 -30t41.5 -28t47.5 -25t59 -25.5t65 -25.5l76.5 -28.5q84 -29 143.5 -54.5t120 -63t97.5 -80t60.5 -101.5t23.5 -131q0 -191 -137 -295.5t-367 -104.5q-124 0 -261 26.5t-249 84.5q-21 9 -8 35z" />
<glyph unicode="&#x406;" horiz-adv-x="530" d="M184 27v1380q0 17 5.5 22t23.5 5h102q18 0 23.5 -5t5.5 -22v-1380q0 -17 -5.5 -22t-23.5 -5h-102q-18 0 -23.5 5t-5.5 22z" />
<glyph unicode="&#x407;" horiz-adv-x="530" d="M-12 1645q0 37 30 65.5t68 28.5q37 0 66.5 -28.5t29.5 -65.5q0 -41 -29 -70t-67 -29q-39 0 -68.5 29t-29.5 70zM184 27v1380q0 17 5.5 22t23.5 5h102q18 0 23.5 -5t5.5 -22v-1380q0 -17 -5.5 -22t-23.5 -5h-102q-18 0 -23.5 5t-5.5 22zM348 1645q0 37 28.5 65.5 t69.5 28.5q37 0 67 -28t30 -66q0 -40 -29.5 -69.5t-67.5 -29.5q-41 0 -69.5 29t-28.5 70z" />
<glyph unicode="&#x408;" horiz-adv-x="1155" d="M14.5 105q-2.5 6 5.5 26l43 80q12 21 39 6q73 -46 170 -71t193 -25q194 0 279 106.5t85 327.5v852q0 16 7 21.5t22 5.5h100q18 0 23.5 -5t5.5 -22v-864q0 -276 -130.5 -421t-397.5 -145q-256 0 -428 113q-14 9 -16.5 15z" />
<glyph unicode="&#x409;" horiz-adv-x="2033" d="M11.5 86.5q0.5 3.5 0.5 6t2 4.5t2.5 3.5t3.5 3l4 2t4.5 2t4.5 1.5q38 16 69 33.5t56.5 45t45 47.5t36 63.5t27 69t20.5 87.5t15.5 95.5t12.5 117.5t10.5 129t10.5 152q5 77 8 118l18 254q9 115 109 115h506q108 0 108 -115v-440h385q91 0 165.5 -17.5t124 -45t87 -67 t58 -78t33.5 -84.5t16.5 -80.5t3.5 -70.5q0 -190 -131 -314t-332 -124h-475q-54 0 -75 21t-21 73v1200h-412l-18 -250q-30 -394 -44 -496q-35 -262 -116 -388q-86 -132 -262 -187q-29 -12 -39 23l-19 74q-1 5 -2 9t-0.5 7.5zM1085 145h390q74 0 132.5 21t92.5 53.5t56 75 t30 81t8 77.5q0 127 -83.5 208.5t-233.5 81.5h-392v-598z" />
<glyph unicode="&#x40a;" horiz-adv-x="2068" d="M154 27v1380q0 16 6.5 21.5t21.5 5.5h105q17 0 22.5 -5t5.5 -22v-551h654v553q0 17 6 22t24 5h103q17 0 22.5 -5t5.5 -22v-553h377q91 0 165.5 -16.5t124 -42.5t87 -63.5t58 -75t33.5 -82t16.5 -78.5t3.5 -70q0 -188 -130.5 -308t-332.5 -120h-465q-54 0 -76 21.5 t-22 72.5v625h-654v-692q0 -17 -5.5 -22t-22.5 -5h-105q-15 0 -21.5 5.5t-6.5 21.5zM1130 145h381q75 0 133 20t92 50.5t55.5 71.5t29.5 78.5t8 76.5q0 127 -81 202t-235 75h-383v-574z" />
<glyph unicode="&#x40b;" horiz-adv-x="1597" d="M29 1321v84q0 18 4 23.5t20 5.5h1129q17 0 21.5 -5.5t4.5 -23.5v-84q0 -17 -4.5 -22t-21.5 -5h-557v-399q85 28 186.5 44.5t179.5 16.5q240 0 358.5 -124t118.5 -357v-448q0 -17 -5.5 -22t-22.5 -5h-101q-17 0 -22.5 5t-5.5 22v442q0 176 -87.5 264t-256.5 88 q-71 0 -167.5 -19t-174.5 -48v-727q0 -17 -5.5 -22t-19.5 -5h-106q-15 0 -22 5.5t-7 21.5v1267h-412q-17 0 -20.5 4.5t-3.5 22.5z" />
<glyph unicode="&#x40c;" horiz-adv-x="1234" d="M154 27v1380q0 16 6.5 21.5t21.5 5.5h101q17 0 22 -5t4 -22v-571h295q42 0 76 8.5t70 30.5t64 66.5t46 109.5l96 362q7 25 33 25h94q18 0 23.5 -12t-0.5 -23l-94 -367q-25 -98 -66.5 -161t-111.5 -97v-10q97 -30 142 -91.5t73 -168.5l129 -475q5 -12 -0.5 -22.5 t-24.5 -10.5h-100q-30 0 -37 25l-125 460q-32 119 -93.5 163t-170.5 44h-318v-665q0 -17 -5.5 -22t-22.5 -5h-99q-15 0 -21.5 5.5t-6.5 21.5zM485 1591q-12 18 7 31l280 199q13 9 19.5 9.5t19.5 -11.5l74 -99q15 -22 -4 -30l-326 -152q-17 -6 -24.5 -5t-14.5 11z" />
<glyph unicode="&#x40e;" horiz-adv-x="1132" d="M39 1413q-10 23 18 23h117q12 0 19 -4t9.5 -8t6.5 -13l229 -553l146 -360h14l137 364l213 551q10 23 37 23h105q13 0 18 -7t0 -18l-467 -1208q-53 -137 -123 -188.5t-192 -51.5q-76 0 -160 23q-18 6 -22.5 11t-2.5 17l19 86q4 16 10.5 18t19.5 -1q97 -15 138 -13 q61 2 100 29.5t68 102.5l61 157h-29q-21 0 -32.5 3t-25 16.5t-24.5 40.5zM264 1716q-14 19 4 35l35 29q5 3 8.5 5t7 2h5t4.5 -2t4 -3l4.5 -4.5l5.5 -5.5q55 -67 120 -103.5t126 -36.5q113 0 241 144q13 13 20 14t17 -6l35 -27q22 -18 2 -43q-145 -205 -321 -205 q-94 0 -176.5 57t-141.5 150z" />
<glyph unicode="&#x40f;" horiz-adv-x="1390" d="M154 113v1296q0 16 5.5 20.5t20.5 4.5h103q18 0 23 -4t5 -21v-1270h766v1270q0 16 6.5 20.5t22.5 4.5h100q18 0 23.5 -4t5.5 -21v-1296q0 -113 -107 -113h-346q-3 -50 -8 -148t-8 -147q0 -29 -23 -29h-92q-20 0 -20 29q-3 49 -7.5 147t-7.5 148h-356q-106 0 -106 113z " />
<glyph unicode="&#x410;" horiz-adv-x="1239" d="M31 33l473 1333q18 44 34 57.5t56 14.5h53q45 0 62.5 -14.5t31.5 -57.5l467 -1333q6 -11 1 -22t-21 -11h-115q-20 0 -27.5 4t-13.5 23l-108 315h-609q-8 -18 -54 -157t-54 -158q-9 -27 -37 -27h-117q-16 0 -21.5 10t-0.5 23zM358 483h521l-154 469l-100 312h-11l-98 -303 z" />
<glyph unicode="&#x411;" horiz-adv-x="1265" d="M154 92v1229q0 113 108 113h748q18 0 23 -6.5t5 -24.5v-80q0 -18 -5 -23.5t-23 -5.5h-697v-413h387q91 0 165.5 -17.5t123.5 -45t86.5 -67t58 -78t33 -84.5t16 -80.5t3.5 -70.5q0 -190 -131 -314t-332 -124h-473q-53 0 -74.5 21t-21.5 71zM313 145h392q74 0 132 21t92 53 t56 75t29.5 81.5t7.5 77.5q0 128 -81.5 209t-235.5 81h-392v-598z" />
<glyph unicode="&#x412;" horiz-adv-x="1296" d="M154 94v1245q0 50 21.5 73.5t74.5 23.5l459 2q123 0 214.5 -35.5t147 -116t55.5 -199.5q0 -95 -48.5 -172.5t-139.5 -117.5v-13q89 -26 147.5 -86.5t80.5 -129t22 -146.5q0 -187 -129.5 -304.5t-327.5 -117.5h-481q-51 0 -73.5 21.5t-22.5 72.5zM313 145h398 q74 0 131.5 19.5t90.5 49t54.5 70t29 77t7.5 75.5q0 126 -82.5 201.5t-232.5 75.5h-396v-568zM313 844h392q32 0 64.5 6t68 22t62 41.5t44 67.5t17.5 96q0 95 -63.5 155t-172.5 60h-412v-448z" />
<glyph unicode="&#x413;" horiz-adv-x="1093" d="M154 33v1063q0 340 333 340h551q22 0 27.5 -8t5.5 -29v-72q0 -22 -5.5 -28.5t-27.5 -6.5h-549q-93 0 -135.5 -42.5t-42.5 -131.5v-1085q0 -20 -7 -26.5t-28 -6.5h-86q-20 0 -28 7t-8 26z" />
<glyph unicode="&#x414;" horiz-adv-x="1447" d="M18 59q-5 38 11.5 58t62.5 24l55 4q59 68 92 154t50 217l98 772q9 75 34.5 111.5t92.5 36.5h631q60 0 86 -28t26 -87v-1180l68 -4q44 -4 57 -20t11 -49l-23 -373q-3 -29 -24 -29h-84q-19 0 -19 27l-10 307h-1045l-18 -305q0 -29 -25 -29h-79q-22 0 -25 29zM326 143h774 v1149h-561l-95 -760q-19 -153 -46 -236.5t-72 -152.5z" />
<glyph unicode="&#x415;" horiz-adv-x="1161" d="M154 338v758q0 152 81.5 246t251.5 94h555q19 0 26 -8.5t7 -28.5v-72q0 -21 -6.5 -28t-26.5 -7h-553q-93 0 -135.5 -42.5t-42.5 -131.5v-287h666q19 0 25 -7t6 -27v-68q0 -18 -6.5 -26.5t-24.5 -8.5h-666v-377q0 -172 178 -172h568q20 0 26.5 -7.5t6.5 -28.5v-72 q0 -20 -7 -28.5t-26 -8.5h-570q-333 0 -333 338z" />
<glyph unicode="&#x416;" horiz-adv-x="1945" d="M68 33l129 475q28 107 73 168.5t142 91.5v8q-130 57 -181 260l-90 367q-6 11 -1 23t22 12h94q26 0 33 -25l96 -362q18 -65 45.5 -109.5t63.5 -66.5t71 -30.5t78 -8.5h252v571q-1 17 4 22t23 5h100q18 0 23.5 -5t5.5 -22v-571h254q91 0 156.5 45.5t99.5 169.5l96 362 q7 25 33 25h96q17 0 21.5 -12t-1.5 -23l-92 -367q-51 -204 -180 -260v-8q97 -30 142 -91.5t73 -168.5l129 -475q6 -11 0.5 -22t-23.5 -11h-104q-26 0 -33 25l-127 460q-32 119 -94.5 163t-171.5 44h-274v-665q0 -17 -5.5 -22t-23.5 -5h-98q-18 0 -24.5 5t-6.5 22l2 665h-274 q-109 0 -172 -44t-95 -163l-127 -460q-7 -25 -32 -25h-103q-38 0 -24 33z" />
<glyph unicode="&#x417;" horiz-adv-x="1173" d="M42 92.5q-2 6.5 7 26.5l33 67q14 25 43 13q177 -80 369 -80q214 0 316.5 81t102.5 224q0 118 -96.5 192t-265.5 74h-113q-63 0 -63 53v39q0 58 57 58h111q143 0 233 69t90 185q0 60 -26 104.5t-72 69.5t-102 37t-123 12q-184 0 -357 -80q-32 -14 -41 12l-28 70 q-9 21 -7 28t15 15q169 98 426 98q217 0 347 -92t130 -264q0 -114 -69 -202t-187 -130v-10q140 -24 223.5 -121t83.5 -227q0 -195 -147 -316t-416 -121q-292 0 -459 97q-13 12 -15 18.5z" />
<glyph unicode="&#x418;" horiz-adv-x="1404" d="M154 90v1319q0 16 6.5 21.5t21.5 5.5h101q17 0 22.5 -5t5.5 -22v-1192h6l162 270l537 875q27 46 44 60t56 14h49q49 0 67.5 -21.5t18.5 -68.5v-1319q0 -17 -5.5 -22t-22.5 -5h-101q-17 0 -22.5 5t-5.5 22v1196h-9l-176 -299l-520 -848q-27 -45 -45.5 -60.5t-54.5 -15.5 h-47q-49 0 -68.5 22.5t-19.5 67.5z" />
<glyph unicode="&#x419;" horiz-adv-x="1404" d="M154 90v1319q0 16 6.5 21.5t21.5 5.5h101q17 0 22.5 -5t5.5 -22v-1192h6l162 270l537 875q27 46 44 60t56 14h49q49 0 67.5 -21.5t18.5 -68.5v-1319q0 -17 -5.5 -22t-22.5 -5h-101q-17 0 -22.5 5t-5.5 22v1196h-9l-176 -299l-520 -848q-27 -45 -45.5 -60.5t-54.5 -15.5 h-47q-49 0 -68.5 22.5t-19.5 67.5zM369 1716q-14 19 4 35l35 29l10 5t6.5 2.5t6 -1t4.5 -2.5t5 -5.5t6 -6.5q55 -67 120 -103.5t126 -36.5q114 0 242 144q13 13 20 14t17 -6l35 -27q22 -18 2 -43q-145 -205 -322 -205q-94 0 -176 57t-141 150z" />
<glyph unicode="&#x41a;" horiz-adv-x="1234" d="M154 27v1380q0 16 6.5 21.5t21.5 5.5h101q17 0 22 -5t4 -22v-571h295q42 0 76 8.5t70 30.5t64 66.5t46 109.5l96 362q7 25 33 25h94q18 0 23.5 -12t-0.5 -23l-94 -367q-25 -98 -66.5 -161t-111.5 -97v-10q97 -30 142 -91.5t73 -168.5l129 -475q5 -12 -0.5 -22.5 t-24.5 -10.5h-100q-30 0 -37 25l-125 460q-32 119 -93.5 163t-170.5 44h-318v-665q0 -17 -5.5 -22t-22.5 -5h-99q-15 0 -21.5 5.5t-6.5 21.5z" />
<glyph unicode="&#x41b;" horiz-adv-x="1368" d="M11.5 86.5q0.5 3.5 0.5 6t2 4.5t2.5 3.5t3.5 3l4 2t4.5 2t4.5 1.5q38 16 69 33.5t56.5 45t45 47.5t36 63.5t27 69t20.5 87.5t15.5 95.5t12.5 117.5t10.5 129t10.5 152q5 77 8 118l18 254q9 115 109 115h641q109 0 109 -115v-1294q0 -17 -5.5 -22t-23.5 -5h-102 q-18 0 -23.5 5t-5.5 22v1267h-549l-18 -250q-30 -394 -44 -496q-35 -262 -116 -388q-86 -132 -262 -187q-29 -12 -39 23l-19 74q-1 5 -2 9t-0.5 7.5z" />
<glyph unicode="&#x41c;" horiz-adv-x="1640" d="M154 27v1319q0 46 18 68t68 22h47q42 0 61 -14t37 -60q289 -705 307 -744q12 -25 62 -151.5t61 -151.5h8q10 23 60.5 147.5t60.5 147.5q127 296 309 752q18 46 38.5 60t60.5 14h47q51 0 69.5 -22.5t18.5 -67.5v-1319q0 -16 -7 -21.5t-22 -5.5h-96q-18 0 -23.5 5t-5.5 22 v1132h-10l-102 -252l-130 -312t-151 -357q-18 -43 -35 -57.5t-57 -14.5h-55q-40 0 -58.5 14.5t-36.5 57.5q-252 603 -286 675l-95 230h-12v-1116q0 -17 -5.5 -22t-23.5 -5h-94q-17 0 -22.5 5t-5.5 22z" />
<glyph unicode="&#x41d;" horiz-adv-x="1392" d="M154 27v1380q0 16 6.5 21.5t21.5 5.5h105q17 0 22.5 -5t5.5 -22v-580h766v580q0 17 5.5 22t23.5 5h100q18 0 23.5 -5t5.5 -22v-1380q0 -17 -5.5 -22t-23.5 -5h-100q-18 0 -23.5 5t-5.5 22v661h-766v-661q0 -17 -5.5 -22t-22.5 -5h-105q-15 0 -21.5 5.5t-6.5 21.5z" />
<glyph unicode="&#x41e;" horiz-adv-x="1425" d="M113 715q0 350 164.5 545.5t435.5 195.5q293 0 446.5 -192.5t153.5 -542.5q0 -360 -153.5 -552t-450.5 -192q-296 0 -446 193t-150 545zM270 721q0 -602 441 -602q98 0 174.5 32.5t126 87.5t81.5 132.5t45 161.5t13 182q0 99 -12 182.5t-42 162.5t-78 134t-125 88 t-177 33q-114 0 -201.5 -47.5t-140 -130.5t-79 -188t-26.5 -228z" />
<glyph unicode="&#x41f;" horiz-adv-x="1390" d="M154 27v1294q0 56 28 85.5t80 29.5h866q109 0 109 -115v-1294q0 -17 -5.5 -22t-23.5 -5h-102q-15 0 -22 5.5t-7 21.5v1267h-764v-1267q0 -17 -5.5 -22t-22.5 -5h-103q-15 0 -21.5 5.5t-6.5 21.5z" />
<glyph unicode="&#x420;" horiz-adv-x="1218" d="M154 25v1316q0 50 20.5 72.5t73.5 22.5h473q190 0 309 -116.5t119 -301.5q0 -51 -11 -104t-42.5 -113t-79.5 -105.5t-129.5 -75.5t-184.5 -30h-393v-565q0 -17 -5 -21t-23 -4h-101q-15 0 -20.5 4.5t-5.5 20.5zM309 729h375q142 0 221.5 73.5t79.5 207.5q0 39 -8.5 76.5 t-30.5 75t-55 65.5t-87 45.5t-122 17.5h-373v-561z" />
<glyph unicode="&#x421;" horiz-adv-x="1204" d="M113 696q0 347 167.5 552.5t444.5 205.5q215 0 381 -86q25 -11 8 -41l-39 -78q-12 -21 -33 -12q-149 70 -311 70q-116 0 -205.5 -50.5t-143.5 -137t-81 -194t-27 -229.5q0 -128 24.5 -228.5t77.5 -179t145 -121t218 -42.5q168 0 338 80q30 11 41 -15l33 -71q9 -21 7 -29 t-15 -16q-160 -97 -430 -97q-289 0 -444.5 177.5t-155.5 541.5z" />
<glyph unicode="&#x422;" horiz-adv-x="1101" d="M29 1321v84q0 18 4 23.5t20 5.5h996q17 0 21.5 -5.5t4.5 -23.5v-84q0 -17 -4.5 -22t-21.5 -5h-424v-1267q0 -17 -5.5 -22t-19.5 -5h-108q-18 0 -23.5 5t-5.5 22v1267h-410q-17 0 -20.5 4.5t-3.5 22.5z" />
<glyph unicode="&#x423;" horiz-adv-x="1132" d="M39 1413q-10 23 18 23h117q12 0 19 -4t9.5 -8t6.5 -13l229 -553l146 -360h14l137 364l213 551q10 23 37 23h105q13 0 18 -7t0 -18l-467 -1208q-53 -137 -123 -188.5t-192 -51.5q-76 0 -160 23q-18 6 -22.5 11t-2.5 17l19 86q4 16 10.5 18t19.5 -1q97 -15 138 -13 q61 2 100 29.5t68 102.5l61 157h-29q-21 0 -32.5 3t-25 16.5t-24.5 40.5z" />
<glyph unicode="&#x424;" horiz-adv-x="1685" d="M113 737q0 260 176 427t467 192v51q0 16 6.5 21.5t21.5 5.5h105q17 0 21.5 -5t4.5 -22v-51q310 -20 484 -186t174 -433q0 -261 -179.5 -426t-478.5 -190v-94q0 -17 -4.5 -22t-21.5 -5h-105q-15 0 -21.5 5.5t-6.5 21.5v94q-306 25 -474.5 188t-168.5 428zM264 737 q0 -96 29.5 -178.5t88.5 -148t154.5 -107t219.5 -51.5v973q-230 -20 -361 -156t-131 -332zM915 250q248 17 377 151t129 336q0 97 -31.5 181.5t-92 151.5t-159 108t-223.5 47v-975z" />
<glyph unicode="&#x425;" horiz-adv-x="1122" d="M25 25l444 718l-410 670q-5 6 -0.5 14.5t15.5 8.5h119q24 0 32 -4t15 -21l323 -537l322 537q16 25 49 25h110q28 0 13 -27l-406 -661l447 -723q5 -7 0.5 -16t-15.5 -9h-122q-32 0 -48 25l-354 593l-354 -593q-16 -25 -47 -25h-119q-28 0 -14 25z" />
<glyph unicode="&#x426;" horiz-adv-x="1427" d="M154 113v1296q0 17 5 21t23 4h101q18 0 23 -4t5 -21v-1270h766v1270q0 16 7 21.5t22 5.5h100q18 0 23.5 -5t5.5 -22v-1264l72 -4q31 -1 46 -14t16.5 -25.5t0.5 -33.5l-22 -375q0 -29 -23 -29h-82q-19 0 -22 29l-13 307h-946q-108 0 -108 113z" />
<glyph unicode="&#x427;" horiz-adv-x="1267" d="M82 1026v383q0 17 5.5 22t23.5 5h100q18 0 23.5 -5t5.5 -22v-360q0 -196 102.5 -278.5t345.5 -82.5q157 0 268 29v692q0 17 5.5 22t23.5 5h100q15 0 22 -5.5t7 -21.5v-1382q0 -16 -7 -21.5t-22 -5.5h-100q-18 0 -23.5 5t-5.5 22v548q-126 -24 -278 -24q-302 0 -449 111.5 t-147 363.5z" />
<glyph unicode="&#x428;" horiz-adv-x="1964" d="M154 113v1296q0 16 5.5 20.5t20.5 4.5h107q18 0 23 -4t5 -21v-1270h594v1270q0 17 5.5 22t23.5 5h98q18 0 23.5 -5t5.5 -22v-1270h586v1270q0 17 5 21t23 4h101q18 0 23 -4t5 -21v-1296q0 -56 -27 -84.5t-75 -28.5h-1454q-98 0 -98 113z" />
<glyph unicode="&#x429;" horiz-adv-x="2000" d="M154 113v1296q0 17 5 21t23 4h105q18 0 23 -4t5 -21v-1270h594v1270q0 17 5.5 22t23.5 5h98q18 0 23.5 -5t5.5 -22v-1270h586v1270q0 17 5.5 22t22.5 5h101q17 0 22.5 -5t5.5 -22v-1262l72 -2q23 -2 38 -10t19.5 -18.5t6.5 -22.5t0 -22l-23 -379q0 -29 -23 -29h-81 q-20 0 -23 29l-12 307h-1528q-100 0 -100 113z" />
<glyph unicode="&#x42a;" horiz-adv-x="1644" d="M10 1321v84q0 18 5 23.5t22 5.5h555q108 0 108 -115v-438h383q91 0 165.5 -17.5t124 -45t87 -67t58 -78t33.5 -84.5t16.5 -80.5t3.5 -70.5q0 -190 -131 -314t-332 -124h-471q-54 0 -76 21.5t-22 72.5v1200h-502q-17 0 -22 5t-5 22zM700 145h387q63 0 114 14.5t84.5 39.5 t58 55.5t37.5 66.5t18.5 68t5.5 64q0 127 -82 208.5t-233 81.5h-390v-598z" />
<glyph unicode="&#x42b;" horiz-adv-x="1644" d="M154 94v1315q0 16 6.5 21.5t21.5 5.5h103q17 0 22.5 -5t5.5 -22v-528h387q91 0 165.5 -17.5t123.5 -45t86.5 -67t58 -78t33 -84.5t16 -80.5t3.5 -70.5q0 -190 -130.5 -314t-330.5 -124h-475q-51 0 -73.5 21.5t-22.5 72.5zM313 145h392q74 0 132 21t92 53t56 75t29.5 81.5 t7.5 77.5q0 127 -82 208.5t-233 81.5h-394v-598zM1331 27v1380q0 17 5.5 22t23.5 5h102q18 0 23.5 -5t5.5 -22v-1380q0 -17 -5.5 -22t-23.5 -5h-102q-18 0 -23.5 5t-5.5 22z" />
<glyph unicode="&#x42c;" horiz-adv-x="1261" d="M154 94v1315q0 16 6.5 21.5t21.5 5.5h103q17 0 22.5 -5t5.5 -22v-528h387q91 0 165.5 -17.5t123.5 -45t86.5 -67t58 -78t33 -84.5t16 -80.5t3.5 -70.5q0 -190 -130.5 -314t-330.5 -124h-475q-51 0 -73.5 21.5t-22.5 72.5zM313 145h392q74 0 132 21t92 53t56 75t29.5 81.5 t7.5 77.5q0 127 -82 208.5t-233 81.5h-394v-598z" />
<glyph unicode="&#x42d;" horiz-adv-x="1220" d="M59 90q-2 8 7 29l34 71q11 25 41 13q166 -78 338 -78q448 0 465 565h-618q-17 0 -22 5.5t-5 23.5v80q0 17 5 22.5t22 5.5h616q-9 106 -37.5 190.5t-79.5 150.5t-132 101.5t-187 35.5q-174 0 -324 -68q-24 -9 -32 10l-37 80q-7 19 -5 27t15 14q166 86 393 86 q281 0 436.5 -179t155.5 -527q0 -380 -157 -575.5t-445 -195.5q-270 0 -432 97q-13 8 -15 16z" />
<glyph unicode="&#x42e;" horiz-adv-x="1835" d="M154 27v1380q0 17 5.5 22t22.5 5h99q17 0 22.5 -5t5.5 -22v-580h266q25 294 176 461.5t402 167.5q277 0 423 -197t146 -542q0 -351 -150 -545.5t-427 -194.5q-124 0 -221.5 38.5t-161 103.5t-106 157.5t-61.5 192.5t-22 217h-264v-659q0 -17 -5.5 -22t-22.5 -5h-99 q-17 0 -22.5 5t-5.5 22zM729 717q0 -130 23 -236t71 -188.5t130 -128t192 -45.5q112 0 194 46t129.5 129.5t70 188.5t22.5 234q0 596 -408 596q-89 0 -160.5 -30t-120 -83.5t-81 -129t-47.5 -163.5t-15 -190z" />
<glyph unicode="&#x42f;" horiz-adv-x="1282" d="M74 18v13q21 76 59 216.5t55 201.5q25 84 69 138.5t126 84.5q-118 43 -179 138.5t-61 223.5q0 174 115.5 288t306.5 114h465q54 0 75 -23t21 -72v-1316q0 -17 -5 -21t-23 -4h-105q-18 0 -23 4t-5 21v604h-322q-115 0 -188 -45.5t-107 -163.5l-108 -397q-8 -23 -35 -23 h-111q-20 0 -20 18zM301 1028q0 -122 74 -192t221 -70h369v524h-381q-74 0 -130.5 -22t-88.5 -60t-48 -83.5t-16 -96.5z" />
<glyph unicode="&#x430;" horiz-adv-x="1085" d="M90 313q0 162 111.5 262.5t326.5 100.5h273v55q0 57 -10.5 96.5t-38 73t-80.5 50t-133 16.5q-66 0 -147.5 -13t-139.5 -32q-28 -9 -35 12l-20 74q-6 21 16 30q151 60 350 60q389 0 389 -346v-658q0 -37 -28 -49q-164 -68 -398 -68q-436 0 -436 336zM240 313 q0 -211 284 -211q51 0 132 10.5t143 32.5v400h-264q-37 0 -69.5 -3.5t-76.5 -17.5t-74.5 -37t-52.5 -68t-22 -106z" />
<glyph unicode="&#x431;" horiz-adv-x="1122" d="M88 496q0 101 2.5 177t10 158t21 143.5t35.5 124t54 108.5t75.5 88t101.5 72.5t130 51.5q61 19 193 45t153 31q30 10 37 -18l21 -68q9 -26 -23 -39q-123 -26 -190.5 -42t-144 -38.5t-113.5 -45t-77 -54t-58 -74t-32.5 -95.5t-23.5 -128q2 0 4 -2q75 55 169.5 84t178.5 29 q96 0 170 -29.5t120 -77t75.5 -114.5t41 -136.5t11.5 -148.5q0 -74 -13.5 -143t-49 -139t-89.5 -122t-141.5 -84.5t-199.5 -32.5q-110 0 -192 31t-130 79.5t-77.5 119.5t-39.5 139t-10 150zM233 485q0 -383 312 -383q75 0 134 24t95.5 62t60 90t33 103.5t9.5 107.5 q0 392 -285 392q-83 0 -176 -34t-170 -93q-13 -173 -13 -269z" />
<glyph unicode="&#x432;" horiz-adv-x="1116" d="M133 76v923q0 76 82 76h438q147 0 235.5 -67t88.5 -199q0 -71 -37 -132t-106 -89l-3 -10q102 -30 147.5 -101.5t45.5 -163.5q0 -139 -99.5 -226t-254.5 -87h-455q-82 0 -82 76zM283 119h354q56 0 99.5 13.5t68 34.5t40 49.5t20.5 54t5 53.5q0 89 -59.5 139.5t-173.5 50.5 h-354v-395zM283 635h360q28 0 57 8t58 25t47 50t18 77q0 65 -45 108t-121 43h-374v-311z" />
<glyph unicode="&#x433;" horiz-adv-x="929" d="M139 33v739q0 67 14 118t47 95t95 67t151 23h433q19 0 24.5 -8t5.5 -27v-65q0 -18 -5.5 -24.5t-24.5 -6.5h-430q-85 0 -122.5 -35t-37.5 -110v-766q0 -20 -6.5 -26.5t-26.5 -6.5h-82q-20 0 -27.5 6.5t-7.5 26.5z" />
<glyph unicode="&#x434;" horiz-adv-x="1232" d="M14 49q-4 60 60 68l49 6q50 53 76 129.5t45 200.5l82 534q6 47 32 67.5t80 20.5h514q55 0 72.5 -22t17.5 -66v-864l56 -4q62 -7 57 -66l-20 -344q0 -24 -21 -24h-92q-15 0 -18 24l-11 291h-813l-20 -293q0 -22 -23 -22h-84q-15 0 -18 22zM287 123h606v819h-434l-62 -416 q-31 -193 -51.5 -270.5t-58.5 -132.5z" />
<glyph unicode="&#x435;" horiz-adv-x="1091" d="M92 532q0 268 129 417t338 149q223 0 335 -124.5t112 -334.5q0 -80 -36.5 -110.5t-101.5 -30.5h-624q0 -104 26.5 -181t74 -121.5t107.5 -65.5t134 -21q139 0 241 57q26 13 35 -8l37 -72q13 -25 -10 -35q-125 -74 -314 -74q-233 0 -358 136t-125 419zM250 621h612 q0 350 -303 350q-139 0 -220 -98.5t-89 -251.5z" />
<glyph unicode="&#x436;" horiz-adv-x="1570" d="M54 17q0 7 1 14l105 354q23 78 58.5 125t107.5 68l-2 4q-52 23 -82.5 71.5t-51.5 122.5l-77 271q-4 28 22 28h90q23 0 29 -22l80 -265q27 -88 76.5 -120.5t124.5 -32.5h176v414q0 17 5 21.5t23 4.5h92q18 0 23.5 -4.5t5.5 -21.5v-414h176q75 0 124.5 32.5t76.5 120.5 l80 265q6 22 29 22h90q11 0 16 -4t5 -10.5t-1 -13.5l-76 -271q-21 -74 -52 -122.5t-83 -71.5l-2 -4q72 -23 107.5 -68.5t60.5 -124.5l102 -354q4 -11 1 -21t-21 -10h-98q-22 0 -29 20l-100 342q-23 79 -80 115.5t-127 36.5h-199v-487q0 -17 -5.5 -22t-23.5 -5h-92 q-17 0 -22.5 5t-5.5 22v487h-199q-73 0 -128.5 -36.5t-78.5 -115.5l-100 -342q-7 -20 -29 -20h-98q-13 0 -18.5 5t-5.5 12z" />
<glyph unicode="&#x437;" horiz-adv-x="962" d="M43 86l33 70q10 16 18 16q7 0 19 -6q153 -66 303 -66q160 0 238.5 59.5t78.5 157.5q0 89 -79 139t-244 50q-31 0 -44.5 10t-13.5 35v33q0 47 56 47q280 0 280 174q0 80 -66 121t-186 41q-135 0 -274 -60q-16 -4 -17 -4q-14 0 -20 15l-27 65q-6 12 -6 21q0 8 14 16 q149 76 347 76q179 0 281 -72t102 -205q0 -80 -47.5 -146t-137.5 -100l2 -6q109 -23 166.5 -91.5t57.5 -164.5q0 -143 -114 -237t-327 -94q-104 0 -211 19t-176 56q-15 9 -6 31z" />
<glyph unicode="&#x438;" horiz-adv-x="1159" d="M133 72v977q0 28 29 28h92q29 0 29 -28v-836l6 -2q132 205 137 211q73 116 211 326t186 272q20 33 35.5 44t50.5 11h45q70 0 70 -71v-977q0 -17 -5.5 -22t-23.5 -5h-92q-18 0 -23.5 5t-5.5 22v829h-10q-9 -11 -61.5 -93.5t-57.5 -90.5l-413 -617q-20 -32 -38 -43.5 t-48 -11.5h-39q-74 0 -74 72z" />
<glyph unicode="&#x439;" horiz-adv-x="1159" d="M133 72v977q0 28 29 28h92q29 0 29 -28v-836l6 -2q132 205 137 211q73 116 211 326t186 272q20 33 35.5 44t50.5 11h45q70 0 70 -71v-977q0 -17 -5.5 -22t-23.5 -5h-92q-18 0 -23.5 5t-5.5 22v829h-10q-9 -11 -61.5 -93.5t-57.5 -90.5l-413 -617q-20 -32 -38 -43.5 t-48 -11.5h-39q-74 0 -74 72zM254 1413q-14 19 4 35l35 29l10 5t7 2.5t6 -1.5l4.5 -3t5.5 -5.5t6 -6.5q55 -66 120 -102.5t126 -36.5q113 0 241 144q13 13 20 14t17 -6l35 -27q22 -18 2 -43q-145 -205 -322 -205q-94 0 -176 57t-141 150z" />
<glyph unicode="&#x43a;" horiz-adv-x="1026" d="M131 27v1022q0 17 6.5 21.5t24.5 4.5h90q18 0 23.5 -4.5t5.5 -21.5v-414h213q74 0 122.5 32t75.5 121l82 265q4 16 10 19t19 3h92q11 0 16 -4t5 -10.5t-1 -13.5l-77 -271q-21 -75 -51.5 -123t-81.5 -71l-3 -4q72 -21 107.5 -68t58.5 -125l105 -354q1 -7 1 -14t-5 -12 t-17 -5h-100q-22 0 -29 20l-100 342q-46 152 -207 152h-235v-487q0 -17 -5.5 -22t-23.5 -5h-90q-18 0 -24.5 5t-6.5 22z" />
<glyph unicode="&#x43b;" horiz-adv-x="1134" d="M14 55q-4 17 0 24t21 15q44 19 74.5 40.5t55 58.5t39.5 80.5t28 116.5t21 155t17 207l17 231q3 92 92 92h534q51 0 69.5 -22t18.5 -70v-956q0 -17 -6.5 -22t-25.5 -5h-82q-18 0 -25.5 5.5t-7.5 21.5v917h-434l-12 -166q-7 -94 -12.5 -152t-13 -130t-15 -114t-18.5 -94 t-23.5 -82t-30 -65.5t-38 -56.5t-48 -43t-59.5 -37.5t-72 -28.5q-11 -6 -23.5 -5t-17.5 16z" />
<glyph unicode="&#x43c;" horiz-adv-x="1404" d="M133 27v981q0 28 17 47.5t55 19.5h55q32 0 48.5 -10.5t33.5 -44.5q22 -47 118 -244t118 -244l120 -260h7q13 26 77 165t82 173q20 36 101 205t100 205q17 35 32 45t50 10h53q38 0 55 -19.5t17 -47.5v-981q0 -17 -5.5 -22t-23.5 -5h-88q-18 0 -23.5 5t-5.5 22v817h-8 l-92 -197q-27 -66 -227 -471q-14 -30 -29.5 -41.5t-46.5 -11.5h-41q-32 0 -48 11t-30 42l-221 453q-11 20 -50 101.5t-46 100.5h-8v-804q0 -17 -6.5 -22t-24.5 -5h-86q-18 0 -23.5 5t-5.5 22z" />
<glyph unicode="&#x43d;" horiz-adv-x="1148" d="M139 31v1013q0 18 8.5 24.5t26.5 6.5h84q18 0 25.5 -6.5t7.5 -24.5v-403h569v403q0 18 7.5 24.5t25.5 6.5h84q19 0 25 -6t6 -25v-1013q0 -19 -6 -25t-25 -6h-84q-18 0 -25.5 6.5t-7.5 24.5v481h-569v-481q0 -18 -7.5 -24.5t-25.5 -6.5h-84q-18 0 -26.5 6.5t-8.5 24.5z " />
<glyph unicode="&#x43e;" horiz-adv-x="1126" d="M92 537q0 265 130.5 413t342.5 148q227 0 348 -145t121 -410q0 -275 -123 -420.5t-352 -145.5q-228 0 -347.5 142.5t-119.5 417.5zM242 543q0 -441 319 -441q89 0 154 37t100.5 101.5t51.5 138t16 158.5q0 434 -318 434q-83 0 -146.5 -34t-101.5 -94.5t-56.5 -135.5 t-18.5 -164z" />
<glyph unicode="&#x43f;" horiz-adv-x="1161" d="M133 27v970q0 30 19 54t61 24h735q42 0 61 -24t19 -54v-970q0 -17 -5.5 -22t-23.5 -5h-94q-17 0 -22.5 5t-5.5 22v917h-594v-917q0 -17 -5.5 -22t-23.5 -5h-92q-15 0 -22 5.5t-7 21.5z" />
<glyph unicode="&#x440;" horiz-adv-x="1128" d="M133 -391v1382q0 23 23 33q170 74 411 74q158 0 265 -72t155.5 -194.5t48.5 -290.5q0 -120 -29.5 -221.5t-87 -178.5t-148.5 -120.5t-208 -43.5q-149 0 -280 39v-407q0 -17 -4.5 -21t-22.5 -4h-94q-16 0 -22.5 4.5t-6.5 20.5zM283 150q130 -44 258 -44q157 0 248.5 105.5 t91.5 329.5q0 118 -24 202.5t-70 133t-106 70.5t-138 22q-61 0 -134.5 -11.5t-125.5 -33.5v-774z" />
<glyph unicode="&#x441;" horiz-adv-x="968" d="M92 526q0 264 130 418t353 154q163 0 299 -72q26 -16 11 -37l-37 -69q-5 -12 -11 -14.5t-24 3.5q-123 56 -238 56q-86 0 -152 -36t-104.5 -98t-57.5 -139t-19 -166q0 -420 336 -420q141 0 256 64q18 6 23.5 4t12.5 -14l33 -72q17 -19 -8 -37q-140 -74 -338 -74 q-230 0 -347.5 137.5t-117.5 411.5z" />
<glyph unicode="&#x442;" horiz-adv-x="925" d="M20 975v67q0 18 7 25.5t26 7.5h821q19 0 25 -7t6 -26v-67q0 -15 -6 -22t-25 -7h-346v-913q0 -20 -6 -26.5t-24 -6.5h-84q-19 0 -26 6.5t-7 26.5v913h-328q-19 0 -26 7t-7 22z" />
<glyph unicode="&#x443;" horiz-adv-x="980" d="M25 1055q-6 20 14 20h113q13 0 17 -3.5t9 -14.5q154 -479 201 -608q9 -22 51 -170t49 -168h10q19 56 65 200.5t48 151.5q6 15 37.5 106.5t81 234.5t88.5 251q5 12 9.5 16t17.5 4h106q22 0 16 -20l-421 -1235q-46 -137 -114 -192.5t-179 -55.5q-99 0 -164 22 q-29 10 -23 31l21 76q8 23 31 14q65 -16 110 -16q71 0 112 28t68 113l62 168h-35q-19 0 -30 2.5t-23 16.5t-21 41z" />
<glyph unicode="&#x444;" horiz-adv-x="1429" d="M92 539q0 254 149 398.5t396 152.5v380q0 17 5.5 22t23.5 5h96q18 0 23.5 -5t5.5 -22v-380q251 -8 398.5 -152.5t147.5 -398.5q0 -244 -139 -394.5t-407 -167.5v-366q0 -17 -5.5 -22t-23.5 -5h-96q-18 0 -23.5 5t-5.5 22v366q-264 17 -404.5 169t-140.5 393zM236 535 q0 -84 24 -157.5t71.5 -133t125.5 -98t180 -46.5v863q-199 -10 -300 -123.5t-101 -304.5zM791 100q106 8 185.5 46t125.5 98.5t68 133t22 157.5q0 191 -101 304.5t-300 123.5v-863z" />
<glyph unicode="&#x445;" horiz-adv-x="929" d="M20 27l359 544l-309 478q-4 5 -5 10.5t2.5 10.5t14.5 5h115q28 0 39 -20l233 -377l236 377q7 12 13.5 16t22.5 4h111q15 0 17.5 -8.5t-3.5 -13.5l-315 -475l360 -553q4 -5 5 -10t-2.5 -10t-14.5 -5h-125q-19 0 -25.5 4t-13.5 16l-272 445l-281 -442q-13 -23 -39 -23h-110 q-28 0 -13 27z" />
<glyph unicode="&#x446;" horiz-adv-x="1187" d="M133 98v946q0 18 7.5 24.5t25.5 6.5h84q20 0 26.5 -6t6.5 -25v-921h579v921q0 18 8 24.5t27 6.5h84q18 0 25.5 -6.5t7.5 -24.5v-917l53 -4q20 -2 33 -9t18 -17.5t6.5 -19t1.5 -20.5l-20 -354q-3 -22 -21 -22h-94q-15 0 -18 22l-10 297h-742q-42 0 -65 26.5t-23 71.5z" />
<glyph unicode="&#x447;" horiz-adv-x="1054" d="M72 807v242q0 16 6.5 21t21.5 5h95q18 0 23 -4.5t5 -21.5v-246q0 -152 64.5 -211.5t220.5 -59.5q163 0 264 39v478q0 17 5 21.5t22 4.5h94q18 0 23.5 -4.5t5.5 -21.5v-1022q0 -17 -5.5 -22t-23.5 -5h-92q-18 0 -23.5 5t-5.5 22v415q-147 -43 -287 -43q-218 0 -315.5 100 t-97.5 308z" />
<glyph unicode="&#x448;" horiz-adv-x="1695" d="M133 98v946q0 18 7.5 24.5t25.5 6.5h84q20 0 26.5 -6t6.5 -25v-921h491v921q0 19 7 25t28 6h80q18 0 25.5 -6.5t7.5 -24.5v-921h491v921q0 18 7.5 24.5t25.5 6.5h86q18 0 24.5 -6.5t6.5 -24.5v-946q0 -46 -22.5 -72t-65.5 -26h-1254q-42 0 -65 26.5t-23 71.5z" />
<glyph unicode="&#x449;" horiz-adv-x="1736" d="M133 98v946q0 18 7.5 24.5t25.5 6.5h84q20 0 26.5 -6t6.5 -25v-921h491v921q0 19 7 25t28 6h80q18 0 25.5 -6.5t7.5 -24.5v-921h491v921q0 18 7.5 24.5t25.5 6.5h84q18 0 25.5 -6.5t7.5 -24.5v-917l53 -4q20 -2 33 -9t18 -17.5t6.5 -19t1.5 -20.5l-22 -354 q-3 -22 -21 -22h-92q-15 0 -18 22l-11 297h-1290q-42 0 -65 26.5t-23 71.5z" />
<glyph unicode="&#x44a;" horiz-adv-x="1376" d="M20 973v74q0 15 5.5 21.5t21.5 6.5h440q78 0 78 -80l-2 -288h344q95 0 168.5 -26t114 -64.5t66.5 -89t34 -92t8 -81.5q0 -145 -104.5 -249.5t-257.5 -104.5h-434q-90 0 -90 96v848h-365q-17 0 -22 5.5t-5 23.5zM563 125h342q59 0 104 16.5t71 41t43 57t22.5 60.5t5.5 56 q0 95 -63 160.5t-183 65.5h-342v-457z" />
<glyph unicode="&#x44b;" horiz-adv-x="1427" d="M133 94v950q0 19 6 25t23 6h86q19 0 26 -6.5t7 -24.5v-339h344q95 0 168.5 -26t114 -64t66.5 -88.5t34 -91.5t8 -81q0 -144 -104.5 -249t-256.5 -105h-434q-88 0 -88 94zM281 123h344q59 0 104 16.5t71 41.5t42.5 58t22 61t5.5 56q0 95 -62.5 160.5t-182.5 65.5h-344 v-459zM1145 29v1015q0 18 6.5 24.5t24.5 6.5h84q18 0 25 -6.5t7 -24.5v-1015q0 -18 -7 -23.5t-25 -5.5h-84q-18 0 -24.5 5.5t-6.5 23.5z" />
<glyph unicode="&#x44c;" horiz-adv-x="1097" d="M133 94v950q0 19 6 25t23 6h86q19 0 26 -6.5t7 -24.5v-339h344q95 0 168.5 -26t114 -64t66.5 -88.5t34 -91.5t8 -81q0 -144 -104.5 -249t-256.5 -105h-434q-88 0 -88 94zM281 123h344q59 0 104 16.5t71 41.5t42.5 58t22 61t5.5 56q0 95 -62.5 160.5t-182.5 65.5h-344 v-459z" />
<glyph unicode="&#x44d;" horiz-adv-x="968" d="M59 86l35 74q10 23 35 10q136 -64 256 -64q175 0 259.5 110.5t84.5 295.5h-442q-12 0 -16.5 4.5t-4.5 20.5v79q0 21 19 21h438q-23 326 -313 326q-120 0 -250 -56q-18 -5 -24 -2.5t-11 13.5l-29 69q-6 17 -5 23.5t11 13.5q139 74 314 74q225 0 345 -135.5t120 -401.5 q0 -288 -122.5 -436t-363.5 -148q-199 0 -325 72q-23 13 -11 37z" />
<glyph unicode="&#x44e;" horiz-adv-x="1470" d="M133 33v1011q0 18 7.5 24.5t25.5 6.5h82q23 0 29 -6t6 -25v-413h192q25 223 143.5 345t309.5 122q220 0 335 -144.5t115 -410.5q0 -271 -118.5 -418.5t-335.5 -147.5q-216 0 -329.5 137.5t-121.5 389.5h-190v-471q0 -21 -6 -27t-29 -6h-82q-18 0 -25.5 7t-7.5 26z M621 543q0 -80 9.5 -144.5t31.5 -121t57 -94.5t88 -59.5t121 -21.5q66 0 118.5 24.5t86 65t55.5 97t31.5 118t9.5 130.5q0 93 -15 168t-48.5 136.5t-93.5 95.5t-144 34q-150 0 -228.5 -118.5t-78.5 -309.5z" />
<glyph unicode="&#x44f;" horiz-adv-x="1101" d="M55 18q0 3 1 5.5t1 5.5l95 301q20 67 51.5 107t97.5 57q-2 0 -2 4q-95 25 -140.5 97.5t-45.5 170.5q0 133 91.5 221t250.5 88h432q37 0 58.5 -20t21.5 -58v-974q0 -16 -6 -19.5t-25 -3.5h-90q-18 0 -23.5 4t-5.5 21v430h-289q-95 0 -149 -29.5t-84 -122.5 q-32 -94 -84 -280q-8 -23 -33 -23h-100q-23 0 -23 18zM260 764q0 -189 217 -189h340v371h-352q-99 0 -152 -53.5t-53 -128.5z" />
<glyph unicode="&#x451;" horiz-adv-x="1091" d="M92 532q0 268 129 417t338 149q223 0 335 -124.5t112 -334.5q0 -80 -36.5 -110.5t-101.5 -30.5h-624q0 -104 26.5 -181t74 -121.5t107.5 -65.5t134 -21q139 0 241 57q26 13 35 -8l37 -72q13 -25 -10 -35q-125 -74 -314 -74q-233 0 -358 136t-125 419zM250 621h612 q0 350 -303 350q-139 0 -220 -98.5t-89 -251.5zM283 1386q0 37 30 66t68 29q37 0 66.5 -29t29.5 -66q0 -40 -29 -69t-67 -29q-39 0 -68.5 28.5t-29.5 69.5zM643 1386q0 38 28.5 66.5t69.5 28.5q37 0 67 -28.5t30 -66.5q0 -40 -29.5 -69t-67.5 -29q-41 0 -69.5 28.5 t-28.5 69.5z" />
<glyph unicode="&#x452;" horiz-adv-x="1120" d="M39 1249v47q0 13 3.5 19t16.5 6h88v149q0 16 7 21.5t22 5.5h92q18 0 23.5 -5t5.5 -22v-149h451q16 0 19 -5t3 -20v-47q0 -11 -0.5 -14.5t-5.5 -6.5t-16 -3h-451v-238q123 49 289 49q100 0 179 -29t130 -78t84 -117.5t47 -142.5t14 -159q0 -191 -92 -361t-246 -260 q-21 -9 -32 7l-47 65q-12 15 8 29q120 78 189 207.5t69 302.5q0 198 -78.5 302.5t-253.5 104.5q-142 0 -260 -51v-829q0 -17 -5.5 -22t-23.5 -5h-92q-15 0 -22 5.5t-7 21.5v1198h-88q-13 0 -16.5 5t-3.5 19z" />
<glyph unicode="&#x453;" horiz-adv-x="929" d="M139 33v739q0 67 14 118t47 95t95 67t151 23h433q19 0 24.5 -8t5.5 -27v-65q0 -18 -5.5 -24.5t-24.5 -6.5h-430q-85 0 -122.5 -35t-37.5 -110v-766q0 -20 -6.5 -26.5t-26.5 -6.5h-82q-20 0 -27.5 6.5t-7.5 26.5zM415 1265q-1 3 5 21l133 305q5 12 12 17t23 4l121 -31 q31 -6 12 -29l-207 -301q-15 -21 -37 -12l-49 18q-12 5 -13 8z" />
<glyph unicode="&#x454;" horiz-adv-x="968" d="M92 526q0 266 129 416.5t354 155.5q164 3 299 -72q26 -16 11 -37l-37 -69q-5 -12 -11 -14.5t-24 3.5q-123 56 -238 56q-147 -4 -230.5 -99t-96.5 -243h440q17 0 17 -21v-80q0 -26 -17 -26h-444q11 -390 334 -390q141 0 256 64q18 6 23.5 4t12.5 -14l33 -72q17 -19 -8 -37 q-140 -74 -338 -74q-230 0 -347.5 137.5t-117.5 411.5z" />
<glyph unicode="&#x455;" horiz-adv-x="929" d="M74 94l32 70q9 24 39 14q158 -74 328 -74q108 0 172 44t64 128q0 76 -63 124t-204 100q-180 63 -251.5 129.5t-71.5 179.5q0 128 94.5 208.5t263.5 80.5q173 0 318 -60q23 -10 14 -34l-33 -80q-10 -17 -28 -9q-142 56 -275 56q-93 0 -150 -43t-57 -111q0 -73 54.5 -113.5 t203.5 -93.5q60 -22 103.5 -42t89 -49t73.5 -61.5t46 -77t18 -97.5q0 -147 -105 -226.5t-276 -79.5q-234 0 -387 80q-26 11 -12 37z" />
<glyph unicode="&#x456;" horiz-adv-x="503" d="M150 1370q0 43 30.5 74t71.5 31q42 0 72 -31t30 -74t-29.5 -71.5t-72.5 -28.5q-42 0 -72 29t-30 71zM176 27v1022q0 16 7 21t22 5h92q18 0 23.5 -4.5t5.5 -21.5v-1022q0 -17 -5.5 -22t-23.5 -5h-92q-15 0 -22 5.5t-7 21.5z" />
<glyph unicode="&#x457;" horiz-adv-x="528" d="M-12 1372q0 37 30 65.5t68 28.5q37 0 66.5 -28.5t29.5 -65.5q0 -40 -29 -69t-67 -29q-39 0 -68.5 28.5t-29.5 69.5zM188 27v1022q0 17 5.5 21.5t23.5 4.5h94q15 0 21 -5t6 -21v-1022q0 -16 -6 -21.5t-21 -5.5h-94q-18 0 -23.5 5t-5.5 22zM348 1372q0 37 28.5 65.5 t69.5 28.5q37 0 67 -28t30 -66q0 -40 -29.5 -69t-67.5 -29q-41 0 -69.5 28.5t-28.5 69.5z" />
<glyph unicode="&#x458;" horiz-adv-x="532" d="M-55 -346q-10 19 16 29q73 31 121.5 75.5t73 101.5t34 114t9.5 130v945q0 16 6.5 21t21.5 5h97q17 0 21.5 -4.5t4.5 -21.5v-924q0 -107 -18.5 -194.5t-49 -147t-77 -106.5t-94 -76t-107.5 -52q-25 -10 -29 15zM172 1370q0 43 30 74t72 31q41 0 72 -31t31 -74 q0 -42 -30.5 -71t-72.5 -29q-43 0 -72.5 28.5t-29.5 71.5z" />
<glyph unicode="&#x459;" horiz-adv-x="1695" d="M14 55q-4 17 0 24t21 15q44 19 74.5 40.5t55 58.5t39.5 80.5t28 116.5t21 155t17 207l17 231q3 92 92 92h424q80 0 80 -76v-292h344q80 0 145 -18t106 -48.5t70 -66.5t43.5 -78t20.5 -75.5t6 -66.5q0 -146 -103 -250t-260 -104h-434q-90 0 -90 96v848h-311l-12 -166 q-7 -94 -12.5 -152t-13 -130t-15 -114t-18.5 -94t-23.5 -82t-30 -65.5t-38 -56.5t-48 -43t-59.5 -37.5t-72 -28.5q-11 -6 -23.5 -5t-17.5 16zM883 125h342q59 0 104 16.5t71 40.5t42.5 56.5t22 61t5.5 56.5q0 98 -62 162t-183 64h-342v-457z" />
<glyph unicode="&#x45a;" horiz-adv-x="1722" d="M133 29v1015q0 18 7.5 23.5t25.5 5.5h84q18 0 25.5 -5.5t7.5 -23.5v-395h497v395q0 18 6.5 24.5t24.5 6.5h86q18 0 24.5 -6.5t6.5 -24.5v-395h336q91 0 161.5 -22.5t110 -56t65 -79t33.5 -84t8 -77.5q0 -143 -97.5 -236.5t-250.5 -93.5h-424q-90 0 -90 94v432h-497v-497 q0 -18 -7.5 -23.5t-25.5 -5.5h-84q-18 0 -25.5 5.5t-7.5 23.5zM928 123h338q56 0 99 14t67 35.5t39 51t19.5 55t4.5 53.5q0 90 -59.5 142t-173.5 52h-334v-403z" />
<glyph unicode="&#x45b;" horiz-adv-x="1136" d="M25 1249v49q0 10 0.5 14t5.5 7.5t16 3.5h86v147q0 16 7 21.5t22 5.5h92q18 0 23.5 -5t5.5 -22v-147h456q13 0 17 -6t4 -19v-49q0 -13 -4 -17.5t-17 -4.5h-456v-242q123 49 297 49q223 0 324.5 -122.5t101.5 -350.5l-2 -534q0 -16 -6 -21.5t-21 -5.5h-96q-18 0 -23.5 5 t-5.5 22v536q0 175 -70 257.5t-227 82.5q-177 0 -272 -49v-827q0 -17 -5.5 -22t-23.5 -5h-92q-15 0 -22 5.5t-7 21.5v1200h-86q-16 0 -19 4t-3 18z" />
<glyph unicode="&#x45c;" horiz-adv-x="1026" d="M131 27v1022q0 17 6.5 21.5t24.5 4.5h90q18 0 23.5 -4.5t5.5 -21.5v-414h213q74 0 122.5 32t75.5 121l82 265q4 16 10 19t19 3h92q11 0 16 -4t5 -10.5t-1 -13.5l-77 -271q-21 -75 -51.5 -123t-81.5 -71l-3 -4q72 -21 107.5 -68t58.5 -125l105 -354q1 -7 1 -14t-5 -12 t-17 -5h-100q-22 0 -29 20l-100 342q-46 152 -207 152h-235v-487q0 -17 -5.5 -22t-23.5 -5h-90q-18 0 -24.5 5t-6.5 22zM409 1234.5q-1 2.5 5 20.5l133 306q5 12 12 16.5t23 3.5l120 -31q32 -6 13 -28l-207 -301q-16 -22 -37 -13l-49 19q-12 5 -13 7.5z" />
<glyph unicode="&#x45e;" horiz-adv-x="980" d="M25 1055q-6 20 14 20h113q13 0 17 -3.5t9 -14.5q154 -479 201 -608q9 -22 51 -170t49 -168h10q19 56 65 200.5t48 151.5q6 15 37.5 106.5t81 234.5t88.5 251q5 12 9.5 16t17.5 4h106q22 0 16 -20l-421 -1235q-46 -137 -114 -192.5t-179 -55.5q-99 0 -164 22 q-29 10 -23 31l21 76q8 23 31 14q65 -16 110 -16q71 0 112 28t68 113l62 168h-35q-19 0 -30 2.5t-23 16.5t-21 41zM186 1417q-14 19 4 35l35 29q5 3 8.5 5t7 2h5t4.5 -2t4 -3l4.5 -4.5l5.5 -5.5q55 -67 120 -103.5t126 -36.5q114 0 242 144q13 13 19.5 14t16.5 -6l35 -27 q22 -18 2 -43q-145 -205 -321 -205q-94 0 -176.5 57t-141.5 150z" />
<glyph unicode="&#x45f;" horiz-adv-x="1159" d="M133 98v946q0 18 7.5 24.5t25.5 6.5h84q20 0 26.5 -6t6.5 -25v-921h591v921q0 18 8 24.5t27 6.5h84q18 0 25.5 -6.5t7.5 -24.5v-946q0 -45 -23.5 -71.5t-66.5 -26.5h-272l-15 -297q0 -29 -20 -29h-94q-21 0 -21 29l-14 297h-279q-42 0 -65 26.5t-23 71.5z" />
<glyph unicode="&#x490;" horiz-adv-x="1107" d="M154 33v1063q0 340 333 340l441 2v254q0 16 5.5 20t20.5 4h88q16 0 22.5 -4t6.5 -20v-291q0 -109 -115 -109h-467q-93 0 -135.5 -42.5t-42.5 -131.5v-1085q0 -20 -7 -26.5t-28 -6.5h-86q-20 0 -28 7t-8 26z" />
<glyph unicode="&#x491;" horiz-adv-x="954" d="M139 33v739q0 303 307 303l351 2v246q0 23 26 23h84q27 0 27 -23v-279q0 -45 -26 -72.5t-79 -27.5h-380q-85 0 -122.5 -35t-37.5 -110v-766q0 -20 -6.5 -26.5t-26.5 -6.5h-82q-20 0 -27.5 6.5t-7.5 26.5z" />
<glyph unicode="&#x4d9;" horiz-adv-x="1091" d="M90 438q0 80 35 111t98 31h627q-2 105 -28.5 181.5t-73.5 121t-106.5 65.5t-133.5 21q-138 0 -242 -58q-26 -13 -35 9l-36 71q-12 27 8 35q125 74 317 74q232 0 356.5 -136t124.5 -419q0 -269 -128 -417t-336 -148q-114 0 -200.5 33.5t-140 95t-80 144.5t-26.5 185z M231 457q0 -351 306 -351q137 0 218 99t89 252h-613z" />
<glyph unicode="&#x2000;" horiz-adv-x="915" />
<glyph unicode="&#x2001;" horiz-adv-x="1830" />
<glyph unicode="&#x2002;" horiz-adv-x="915" />
<glyph unicode="&#x2003;" horiz-adv-x="1830" />
<glyph unicode="&#x2004;" horiz-adv-x="610" />
<glyph unicode="&#x2005;" horiz-adv-x="457" />
<glyph unicode="&#x2006;" horiz-adv-x="305" />
<glyph unicode="&#x2007;" horiz-adv-x="305" />
<glyph unicode="&#x2008;" horiz-adv-x="228" />
<glyph unicode="&#x2009;" horiz-adv-x="366" />
<glyph unicode="&#x200a;" horiz-adv-x="101" />
<glyph unicode="&#x2010;" horiz-adv-x="727" d="M102 522v119q0 15 5.5 21t21.5 6h471q16 0 20.5 -6t4.5 -21v-119q0 -17 -4 -21.5t-21 -4.5h-471q-17 0 -22 4.5t-5 21.5z" />
<glyph unicode="&#x2011;" horiz-adv-x="727" d="M102 522v119q0 15 5.5 21t21.5 6h471q16 0 20.5 -6t4.5 -21v-119q0 -17 -4 -21.5t-21 -4.5h-471q-17 0 -22 4.5t-5 21.5z" />
<glyph unicode="&#x2012;" horiz-adv-x="727" d="M102 522v119q0 15 5.5 21t21.5 6h471q16 0 20.5 -6t4.5 -21v-119q0 -17 -4 -21.5t-21 -4.5h-471q-17 0 -22 4.5t-5 21.5z" />
<glyph unicode="&#x2013;" horiz-adv-x="1024" d="M59 567v82q0 15 5.5 22t21.5 7h852q16 0 21.5 -7t5.5 -22v-82q0 -17 -5 -22.5t-22 -5.5h-852q-17 0 -22 5.5t-5 22.5z" />
<glyph unicode="&#x2014;" horiz-adv-x="2048" d="M55 567v82q0 15 5.5 22t21.5 7h1886q16 0 20.5 -6.5t4.5 -22.5v-82q0 -18 -4 -23t-21 -5h-1886q-17 0 -22 5.5t-5 22.5z" />
<glyph unicode="&#x2018;" horiz-adv-x="565" d="M129 1001v9l121 415q5 19 12 26t25 7h49q33 0 33 -26l-33 -420q-4 -35 -35 -35h-139q-33 0 -33 24z" />
<glyph unicode="&#x2019;" horiz-adv-x="565" d="M162 1004q10 104 33 419q4 35 34 35h140q34 0 34 -28q0 -1 -1 -2.5t-1 -2.5l-120 -415q-5 -19 -12 -26t-25 -7h-49q-33 0 -33 27z" />
<glyph unicode="&#x201a;" horiz-adv-x="456" d="M119 -225l33 420q4 32 34 32h142q30 0 30 -26v-6q-20 -69 -60.5 -206.5t-59.5 -207.5q-7 -19 -13 -25t-24 -6h-49q-33 0 -33 25z" />
<glyph unicode="&#x201c;" horiz-adv-x="811" d="M129 1001v9l121 415q5 19 12 26t25 7h49q33 0 33 -26l-33 -420q-4 -35 -35 -35h-139q-33 0 -33 24zM440 1004v6l123 415q5 19 11.5 26t23.5 7h51q31 0 31 -22v-4q-23 -323 -33 -420q-4 -35 -33 -35h-141q-33 0 -33 27z" />
<glyph unicode="&#x201d;" horiz-adv-x="811" d="M131 999v5q23 320 33 419q4 35 33 35h141q33 0 33 -24v-9l-123 -415q-5 -19 -11.5 -26t-23.5 -7h-51q-31 0 -31 22zM442 1004l33 419q4 35 35 35h139q33 0 33 -28v-5l-121 -415q-5 -19 -12 -26t-25 -7h-49q-33 0 -33 27z" />
<glyph unicode="&#x201e;" horiz-adv-x="759" d="M119 -225l33 420q4 32 34 32h142q30 0 30 -26v-6q-20 -69 -60.5 -206.5t-59.5 -207.5q-7 -19 -13 -25t-24 -6h-49q-33 0 -33 25zM426 -225l33 420q4 32 35 32h141q31 0 31 -26v-6q-22 -77 -121 -414q-5 -19 -11 -25t-24 -6h-51q-33 0 -33 23v2z" />
<glyph unicode="&#x2026;" horiz-adv-x="1423" d="M115 100q0 54 36.5 88.5t90.5 34.5t88.5 -34.5t34.5 -88.5t-34.5 -89.5t-88.5 -35.5t-90.5 35.5t-36.5 89.5zM586 100q0 54 35.5 88.5t89.5 34.5t88.5 -34.5t34.5 -88.5t-34.5 -89.5t-88.5 -35.5t-89.5 35.5t-35.5 89.5zM1059 100q0 54 36.5 88.5t90.5 34.5t87.5 -34.5 t33.5 -88.5t-33.5 -89.5t-87.5 -35.5t-90.5 35.5t-36.5 89.5z" />
<glyph unicode="&#x202f;" horiz-adv-x="366" />
<glyph unicode="&#x2039;" horiz-adv-x="647" d="M131 500q0 27 29 75l202 328q9 12 14 17t16 9.5t28 4.5h86q17 0 22.5 -11t-2.5 -24l-245 -401l254 -394q19 -32 -21 -32h-88q-28 0 -38.5 6t-18.5 24l-213 330q-25 45 -25 68z" />
<glyph unicode="&#x203a;" horiz-adv-x="647" d="M111 104l251 394l-243 401q-10 13 -4.5 24t22.5 11h88q24 0 34.5 -7t23.5 -24l202 -328q29 -48 29 -75q0 -33 -27 -68l-211 -330q-8 -17 -19 -23.5t-36 -6.5h-92q-37 0 -18 32z" />
<glyph unicode="&#x205f;" horiz-adv-x="457" />
<glyph unicode="&#x20ac;" d="M76 557v47q0 18 4.5 23.5t21.5 5.5h826q16 0 20 -5.5t4 -23.5v-47q0 -18 -4 -23.5t-20 -5.5h-576q38 -411 428 -411q143 0 283 65q26 11 37 -14l30 -68q8 -25 5.5 -30t-15.5 -13q-135 -80 -364 -80q-248 0 -388 137.5t-165 413.5h-101q-17 0 -21.5 5.5t-4.5 23.5zM76 793 v47q0 18 4.5 23t21.5 5h107q33 241 182.5 387t372.5 146q184 0 328 -74q7 -4 9.5 -6.5t5 -11t-6.5 -19.5l-33 -76q-12 -19 -35 -10q-119 53 -260 53q-172 0 -274.5 -107.5t-132.5 -281.5h563q17 0 20.5 -5t3.5 -23v-47q0 -18 -4 -23.5t-20 -5.5h-826q-17 0 -21.5 5.5 t-4.5 23.5z" />
<glyph unicode="&#x2122;" horiz-adv-x="1665" d="M57 1364v49q0 23 19 23h592q20 0 20 -23v-49q0 -23 -20 -23h-248v-690q0 -20 -23 -20h-61q-23 0 -23 20v690h-237q-19 0 -19 23zM770 649v733q0 26 10.5 40t40.5 14h35q27 0 43.5 -11t26.5 -39q5 -10 83 -194.5t83 -194.5q52 -125 65 -153h8q43 103 64 160l166 382 q10 29 25 39.5t44 10.5h37q51 0 51 -54v-733q0 -11 -5 -14.5t-17 -3.5h-60q-12 0 -16 3t-4 15v619h-6l-49 -123l-162 -375q-12 -26 -21 -34.5t-32 -8.5h-37q-23 0 -34 9t-22 34q-85 201 -157 360q-5 12 -26.5 69.5t-26.5 68.5h-5v-619q0 -11 -4.5 -14.5t-17.5 -3.5h-59 q-12 0 -16.5 3.5t-4.5 14.5z" />
<glyph unicode="&#x25fc;" horiz-adv-x="1075" d="M0 0v1075h1075v-1075h-1075z" />
</font>
</defs>
</svg>
